<?xml version="1.0" standalone="no"?>
  <!DOCTYPE svg PUBLIC "-//W3C//DTD SVG 1.1//EN" "http://www.w3.org/Graphics/SVG/1.1/DTD/svg11.dtd" >
  <svg>
  <metadata>
  Created by font-carrier
  </metadata>
  <defs>
  <font id="DreamScar" horiz-adv-x="1058" vert-adv-y="1058" >
    <font-face
      
      font-family="DreamScar"
      
      font-weight="400"
      
      font-stretch="normal"
      
      units-per-em="1000"
      
      ascent="1100"
      
      descent="-219"
      
    />
      <missing-glyph />

      

      
      <glyph glyph-name="uni28" unicode="&#x28;" d="M125 0L625 0L625 625L125 625L125 0M141 16L141 609L609 609L609 16L141 16Z"  horiz-adv-x="750" vert-adv-y="1000"  />

      
      <glyph glyph-name="unia6" unicode="&#xa6;" d="M125 0L625 0L625 625L125 625L125 0M141 16L141 609L609 609L609 16L141 16Z"  horiz-adv-x="750" vert-adv-y="1000"  />

      
      <glyph glyph-name="unia7" unicode="&#xa7;" d="M125 0L625 0L625 625L125 625L125 0M141 16L141 609L609 609L609 16L141 16Z"  horiz-adv-x="750" vert-adv-y="1000"  />

      
      <glyph glyph-name="unia9" unicode="&#xa9;" d="M125 0L625 0L625 625L125 625L125 0M141 16L141 609L609 609L609 16L141 16Z"  horiz-adv-x="750" vert-adv-y="1000"  />

      
      <glyph glyph-name="uniab" unicode="&#xab;" d="M125 0L625 0L625 625L125 625L125 0M141 16L141 609L609 609L609 16L141 16Z"  horiz-adv-x="750" vert-adv-y="1000"  />

      
      <glyph glyph-name="uniac" unicode="&#xac;" d="M125 0L625 0L625 625L125 625L125 0M141 16L141 609L609 609L609 16L141 16Z"  horiz-adv-x="750" vert-adv-y="1000"  />

      
      <glyph glyph-name="uniae" unicode="&#xae;" d="M125 0L625 0L625 625L125 625L125 0M141 16L141 609L609 609L609 16L141 16Z"  horiz-adv-x="750" vert-adv-y="1000"  />

      
      <glyph glyph-name="unib0" unicode="&#xb0;" d="M125 0L625 0L625 625L125 625L125 0M141 16L141 609L609 609L609 16L141 16Z"  horiz-adv-x="750" vert-adv-y="1000"  />

      
      <glyph glyph-name="unib1" unicode="&#xb1;" d="M125 0L625 0L625 625L125 625L125 0M141 16L141 609L609 609L609 16L141 16Z"  horiz-adv-x="750" vert-adv-y="1000"  />

      
      <glyph glyph-name="unib5" unicode="&#xb5;" d="M125 0L625 0L625 625L125 625L125 0M141 16L141 609L609 609L609 16L141 16Z"  horiz-adv-x="750" vert-adv-y="1000"  />

      
      <glyph glyph-name="unib6" unicode="&#xb6;" d="M125 0L625 0L625 625L125 625L125 0M141 16L141 609L609 609L609 16L141 16Z"  horiz-adv-x="750" vert-adv-y="1000"  />

      
      <glyph glyph-name="unib7" unicode="&#xb7;" d="M125 0L625 0L625 625L125 625L125 0M141 16L141 609L609 609L609 16L141 16Z"  horiz-adv-x="750" vert-adv-y="1000"  />

      
      <glyph glyph-name="unib9" unicode="&#xb9;" d="M125 0L625 0L625 625L125 625L125 0M141 16L141 609L609 609L609 16L141 16Z"  horiz-adv-x="750" vert-adv-y="1000"  />

      
      <glyph glyph-name="uni0402" unicode="&#x0402;" d="M125 0L625 0L625 625L125 625L125 0M141 16L141 609L609 609L609 16L141 16Z"  horiz-adv-x="750" vert-adv-y="1000"  />

      
      <glyph glyph-name="uni0403" unicode="&#x0403;" d="M125 0L625 0L625 625L125 625L125 0M141 16L141 609L609 609L609 16L141 16Z"  horiz-adv-x="750" vert-adv-y="1000"  />

      
      <glyph glyph-name="uni0405" unicode="&#x0405;" d="M125 0L625 0L625 625L125 625L125 0M141 16L141 609L609 609L609 16L141 16Z"  horiz-adv-x="750" vert-adv-y="1000"  />

      
      <glyph glyph-name="uni0452" unicode="&#x0452;" d="M125 0L625 0L625 625L125 625L125 0M141 16L141 609L609 609L609 16L141 16Z"  horiz-adv-x="750" vert-adv-y="1000"  />

      
      <glyph glyph-name="uni0453" unicode="&#x0453;" d="M125 0L625 0L625 625L125 625L125 0M141 16L141 609L609 609L609 16L141 16Z"  horiz-adv-x="750" vert-adv-y="1000"  />

      
      <glyph glyph-name="uni0455" unicode="&#x0455;" d="M125 0L625 0L625 625L125 625L125 0M141 16L141 609L609 609L609 16L141 16Z"  horiz-adv-x="750" vert-adv-y="1000"  />

      
      <glyph glyph-name="uni21" unicode="&#x21;" d="M152 907L152 906Q135 837 103 791Q71 745 20 718Q71 643 96.50 552Q122 461 131 361Q143 259 143 162L161 164Q161 201 164 243Q167 285 171 327Q180 433 206 531.50Q232 630 286 718Q231 746 201 790Q171 834 152 907M237 685Q237 647 215.50 626Q194 605 155 605Q116 605 94.50 626Q73 647 73 685Q73 722 94.50 743Q116 764 155 764Q194 764 215.50 743Q237 722 237 685M153-39L37 96L261 96L153-39Z"  horiz-adv-x="304" vert-adv-y="1000"  />

      
      <glyph glyph-name="uni2c" unicode="&#x2c;" d="M30-125L215 101L56 101L30-125Z"  horiz-adv-x="256" vert-adv-y="1000"  />

      
      <glyph glyph-name="uni2d" unicode="&#x2d;" d="M-13 276L39 377Q61 420 172 373Q284 326 315 356Q348 387 366.50 406Q385 425 398 448Q399 449 399 450Q400 451 400 382L462 404Q461 402 460.50 400Q460 398 459 396Q438 353 376 315Q315 278 260 278Q233 278 209 288Q185 298 162 309Q139 321 116.50 330.50Q94 340 69 342Q41 342 22.50 323.50Q4 305-9 283Q-10 281-11 279Q-12 277-13 275L-13 276Z"  horiz-adv-x="462" vert-adv-y="1000"  />

      
      <glyph glyph-name="uniad" unicode="&#xad;" d="M-13 276L39 377Q61 420 172 373Q284 326 315 356Q348 387 366.50 406Q385 425 398 448Q399 449 399 450Q400 451 400 382L462 404Q461 402 460.50 400Q460 398 459 396Q438 353 376 315Q315 278 260 278Q233 278 209 288Q185 298 162 309Q139 321 116.50 330.50Q94 340 69 342Q41 342 22.50 323.50Q4 305-9 283Q-10 281-11 279Q-12 277-13 275L-13 276Z"  horiz-adv-x="462" vert-adv-y="1000"  />

      
      <glyph glyph-name="uni2e" unicode="&#x2e;" d="M147-58L27 77L250 77L147-58Z"  horiz-adv-x="278" vert-adv-y="1000"  />

      
      <glyph glyph-name="uni27" unicode="&#x27;" d="M94 451L120 677L279 677L94 451Z"  horiz-adv-x="333" vert-adv-y="1000"  />

      
      <glyph glyph-name="uni2019" unicode="&#x2019;" d="M94 451L120 677L279 677L94 451Z"  horiz-adv-x="333" vert-adv-y="1000"  />

      
      <glyph glyph-name="uni30" unicode="&#x30;" d="M34 477L34 475Q34 271 84 127Q133-12 209-12Q280-12 331 132Q383 273 383 478Q383 680 333 827Q282 971 210 971Q139 971 87 821Q61 746 47.50 661.50Q34 577 34 477M212 948L212 946Q271 946 279 802Q281 745 283 653Q285 561 285 456Q285 187 270 99Q255 12 209 12Q194 12 182 22.50Q170 33 161.50 52Q153 71 148 96Q143 121 141 150Q136 206 134.50 276.50Q133 347 133 446Q133 558 135 651Q137 744 142 805Q148 877 164.50 911.50Q181 946 212 948M196 703Q191 649 153 603Q128 578 100 571Q87 567 76.50 565Q66 563 59 561L42 552Q33 545 24 536Q15 527 6 514Q5 512 3 509Q1 506-2 501Q-30 438-16 361L-2 330Q0 325 4 321.50Q8 318 12 315Q8 340 20 373Q33 400 63 424Q77 432 87 437Q97 442 102 443L110 446L152 465L158 468L172 479Q175 482 178 485.50Q181 489 184 494Q187 497 189.50 502Q192 507 196 513Q230 604 196 703M176-2L212-92L243-2L176-2Z"  horiz-adv-x="411" vert-adv-y="1000"  />

      
      <glyph glyph-name="uni31" unicode="&#x31;" d="M28 720L34 691Q41 699 49 709.50Q57 720 68 732Q70 735 72.50 736.50Q75 738 77 742Q91 756 103 767.50Q115 779 122 779Q136 779 141 762.50Q146 746 146 708L146 27L85 27L85 0L302 0L302 27L245 27L245 960L196 959Q170 899 137.50 855.50Q105 812 71 770Q64 762 58 755Q52 748 46 740Q41 735 36.50 730Q32 725 28 720M302 411Q307 414 313 418Q319 422 327 427Q414 513 405 629Q378 575 301 536Q255 517 212 518Q191 518 175.50 518.50Q160 519 149 520L121 516Q90 508 53 486Q51 483 36 475Q-29 414-43 331L-35 293Q-33 288-29.50 283Q-26 278-21 273Q-14 303 15 333Q46 358 99 374Q122 378 138 379.50Q154 381 162 382L175 382L242 390L253 392L279 398Q284 400 289 403.50Q294 407 302 411Z"  horiz-adv-x="309" vert-adv-y="1000"  />

      
      <glyph glyph-name="uni32" unicode="&#x32;" d="M117 183L117 181Q306 380 342 469Q379 556 379 681Q379 804 323 887Q269 971 184 971Q124 971 80 900Q37 830 37 729Q37 660 53.50 618.50Q70 577 99 577Q120 577 135 606Q150 635 150 675Q150 723 134.50 742.50Q119 762 99 763L89 760Q88 759 86 759Q67 759 67 796Q67 845 87 877.50Q107 910 133 927Q155 942 175 942Q277 942 277 684Q277 569 254 491Q244 457 228 420Q214 385 117 183M169 905L266 796L85 796L169 905M90 126L187 16L7 16L90 126M273 125L370 16L189 16L273 125Z"  horiz-adv-x="403" vert-adv-y="1000"  />

      
      <glyph glyph-name="uni33" unicode="&#x33;" d="M88 547L88 521L126 520Q210 520 240 472Q269 425 269 249Q269 184 263 139Q257 94 243 66Q229 38 206.50 25.50Q184 13 152 13Q115 13 89 36Q62 60 62 91Q62 99 66 102.50Q70 106 76 109Q80 113 84.50 114.50Q89 116 94 120Q106 128 115.50 146.50Q125 165 125 207Q125 255 111.50 283Q98 311 77 311Q51 311 35 277.50Q19 244 19 189Q19 92 59.50 39.50Q100-13 170-13Q258-13 315 66Q371 149 371 274Q371 392 332.50 458.50Q294 525 222 539Q288 564 318 614.50Q348 665 348 756Q348 844 298 909Q248 971 175 971Q118 971 81 916Q64 889 54.50 855Q45 821 45 776Q45 724 60 691Q75 658 98 658Q118 658 131.50 686.50Q145 715 145 757Q145 800 131 825Q117 850 97 850Q86 850 86 868Q86 891 100.50 907Q115 923 132 933Q145 941 156.50 943.50Q168 946 174 946Q255 946 255 737Q255 633 225 589.50Q195 546 123 547L88 547Z"  horiz-adv-x="398" vert-adv-y="1000"  />

      
      <glyph glyph-name="uni34" unicode="&#x34;" d="M14 314L14 264L228 264L228 27L164 27L164 0L377 0L377 27L316 27L316 264L369 264L138 263L369 409L316 409L316 960L271 960L14 314M73 409L228 796L228 409L73 409Z"  horiz-adv-x="398" vert-adv-y="1000"  />

      
      <glyph glyph-name="uni35" unicode="&#x35;" d="M55 953L55 952Q59 917 61 893Q63 869 64 847Q64 833 64.50 819.50Q65 806 65 789Q65 707 58.50 627Q52 547 38 472L50 464Q74 585 144 585Q198 585 227.50 510.50Q257 436 257 291Q257 13 146 13Q105 13 77 40Q47 68 26 85Q4 102 48 43Q88-14 158-14Q244-14 300 81Q360 177 360 317Q360 445 303 531Q246 618 163 618Q140 618 123 612Q106 606 89 589Q80 582 66 564Q70 598 72 624Q73 641 74 658.50Q75 676 75.50 696.50Q76 717 76.50 741.50Q77 766 77 798Q79 805 80 806Q83 809 88 809Q105 809 120.50 804Q136 799 152 793Q167 788 183.50 783Q200 778 216 778Q271 778 296 819.50Q321 861 326 959L316 968Q316 961 314 959Q306 927 292 927Q279 927 266 933Q253 939 240 945Q238 946 235 947.50Q232 949 229 950Q219 956 202.50 960Q186 964 168 968Q159 969 150.50 970Q142 971 134 971Q123 971 115 970Q107 969 99 968Q90 964 79.50 961Q69 958 55 953M144-7L180-96L211-7L144-7M-75 297L15 334L15 266L-75 297M443 304L353 340L353 273L443 304Z"  horiz-adv-x="306" vert-adv-y="1000"  />

      
      <glyph glyph-name="uni36" unicode="&#x36;" d="M373 948L373 971Q247 971 152 786Q58 605 58 348Q58 192 108 89Q159-12 236-12Q306-12 354 84Q403 178 403 315Q403 436 362 521Q321 605 262 605Q225 605 202.50 582.50Q180 560 161 505Q170 724 215 829Q260 936 373 948M296 298L296 297L296 239Q295 210 294.50 181.50Q294 153 292 124Q289 73 278.50 46Q268 19 251 19Q214 19 205 126Q203 152 201.50 188.50Q200 225 200 267Q199 270 199 277L199 288L199 311Q199 330 199.50 351.50Q200 373 201 393Q203 427 206.50 457Q210 487 215 514Q225 569 251 569Q279 569 287 509Q290 478 292.50 445Q295 412 295 376L295 347L295 335L295 328Q295 324 296 321L296 298M394 319L483 356L394 387L394 319M213-2L250-91L281-2L213-2M66 380L-24 343L66 312L66 380Z"  horiz-adv-x="437" vert-adv-y="1000"  />

      
      <glyph glyph-name="uni37" unicode="&#x37;" d="M33 428L47 428L90 778L329 778Q311 640 285.50 518Q260 396 231 275Q231 270 230 267Q229 264 228 259Q206 167 206 96Q206 48 220.50 18Q235-12 258-12Q276-12 289.50 17Q303 46 303 86Q303 129 293.50 145.50Q284 162 273 167Q271 168 268.50 169Q266 170 264 171Q255 175 249 180.50Q243 186 243 203Q243 258 265 350Q276 401 289.50 453Q303 505 317 560Q322 579 327 596.50Q332 614 337 631Q349 676 361 718.50Q373 761 384 798Q395 835 404 865Q413 895 419 916L419 960L88 959Q87 954 87 945L87 932L87 919Q87 911 86 907Q84 878 83 856Q82 834 80 811Q79 797 73.50 750.50Q68 704 58 626Q48 548 42 498.50Q36 449 33 428Z"  horiz-adv-x="398" vert-adv-y="1000"  />

      
      <glyph glyph-name="uni38" unicode="&#x38;" d="M235 514L235 513Q229 509 222.50 505.50Q216 502 209 497Q162 468 125 410Q86 353 86 245Q86 132 135 59Q185-12 261-12Q334-12 385 63Q410 101 423 147.50Q436 194 436 249Q436 451 286 516Q293 520 300 524Q307 528 315 533Q353 559 385 609Q416 658 416 750Q416 847 372 909Q330 971 261 971Q226 971 197 954Q168 937 147.50 905Q127 873 116 828Q105 783 105 727Q105 660 131 613Q145 590 159.50 573Q174 556 189 543Q215 522 235 514M264 503L264 501Q298 473 307 409Q312 377 314.50 337Q317 297 317 248Q317 125 303.50 70Q290 15 261 15Q247 15 238 26.50Q229 38 223.50 64Q218 90 215.50 132Q213 174 213 235Q213 289 215 330.50Q217 372 221 403Q228 466 264 503M264 531L264 530Q264 530 263.50 530.50Q263 531 262 531Q239 554 232 593Q226 635 226 747Q226 807 227.50 847Q229 887 233 907Q241 948 264 948Q275 948 283 938Q291 928 295.50 903.50Q300 879 302 838.50Q304 798 304 737Q304 686 302 651Q300 616 296 596Q288 554 264 531M228-2L264-92L295-2L228-2M24 767L114 730L114 798L24 767M408 732L498 769L408 800L408 732Z"  horiz-adv-x="398" vert-adv-y="1000"  />

      
      <glyph glyph-name="uni39" unicode="&#x39;" d="M52 13L52-12Q125-4 185 48Q245 100 293 212Q332 303 350 398.50Q368 494 368 609Q368 767 317 868Q265 971 189 971Q120 971 72 874Q23 780 23 642Q23 524 64 436Q104 354 165 354Q201 354 223 375.50Q245 397 265 452Q260 343 247 263.50Q234 184 211 130Q167 23 52 13M135 666L135 665L135 722Q136 751 136.50 781Q137 811 138 838Q144 943 175 943Q191 943 201 915.50Q211 888 215 836Q217 809 218 770Q219 731 220 688L220 678L220 669L220 649Q220 629 219.50 609Q219 589 218 568Q216 501 206 447Q195 393 175 393Q151 393 143 452Q140 482 138 514.50Q136 547 136 583L136 611L136 639Q135 641 135 651L135 666M-57 627L32 590L32 658L-57 627M361 594L450 630L361 661L361 594Z"  horiz-adv-x="426" vert-adv-y="1000"  />

      
      <glyph glyph-name="uni3f" unicode="&#x3f;" d="M292 895Q215 896 163 826Q114 750 101 632L87 632L87 887L100 887Q98 847 116 840Q187 903 280 900Q288 898 292 895M423 733Q417 652 359 582Q321 544 280 534Q260 529 244.50 525.50Q229 522 218 520L193 506Q165 487 138 449Q136 444 126 429Q85 334 105 219L126 173Q130 166 135.50 160.50Q141 155 148 150Q142 190 160 237Q179 279 224 314Q267 339 283 342L294 347L357 375L367 380L388 396Q392 401 396.50 406.50Q401 412 406 419Q410 424 414 431Q418 438 423 447Q476 584 423 733M382 520Q377 511 372.50 504Q368 497 364 492Q353 475 347 469L325 453L315 448L253 419L241 415Q233 413 218.50 405.50Q204 398 183 387Q138 351 118 310Q101 263 106 222Q93 232 85 245L63 292Q44 403 85 502Q96 517 97 521Q125 561 151 579L177 592Q188 594 203 598Q218 602 238 607Q279 617 317 655Q376 729 382 806Q434 656 382 520M166-34L46 101L270 101L166-34Z"  horiz-adv-x="484" vert-adv-y="1000"  />

      
      <glyph glyph-name="uni41" unicode="&#x41;" d="M224 894L225 900L237 900L406-6L451-7L451-31L247-31L247-6L292-6L298-4L191 590Q185 590 133 292L132 279Q221 258 208 168Q196 78 96 74Q72-6 144-6L144-31L10-31L10-6Q71 0 78 79Q-1 113 8 205Q34 277 115 283L224 894M155 205Q142 232 108 229Q55 218 58 170Q71 123 115 128Q171 144 155 205Z"  horiz-adv-x="467" vert-adv-y="1000"  />

      
      <glyph glyph-name="uni42" unicode="&#x42;" d="M77 877L132 875L132 521Q133 507 132.50 496Q132 485 130 477L132 449L132 51Q131 21 132 2L128 0L77 0L77-27L139-27L177-219L220-27L245-27Q331-35 395-2Q513 83 497 244Q498 429 352 473Q516 566 464 773Q429 856 360 891Q344 896 331.50 898.50Q319 901 309 902L298 904L77 904L77 877M343 834Q376 762 370 691Q374 684 372 672Q376 582 345 516Q294 474 236 464L237 875Q302 873 343 834M254 459Q291 453 329 434L333 430L343 422L358 400L364 387Q382 340 382 305L384 283L386 279L386 225Q393 124 352 41Q298-3 235 2L237 461L254 459M412 242L206 242L309 139L412 242M-54 473L134 436L134 504L-54 473Z"  horiz-adv-x="539" vert-adv-y="1000"  />

      
      <glyph glyph-name="uni43" unicode="&#x43;" d="M222 897Q232 899 243 904L285 904L298 902Q306 898 321.50 888Q337 878 359 861L389 840Q417 841 417 878L429 880L429 603Q427 595 429 583L414 582Q414 599 394 714Q374 827 310 866Q292 878 270 881Q249 879 227 859Q204 838 182 772Q159 705 160 570Q218 554 239 487Q245 402 156 367L156 291L158 284L158 259Q158 255 158.50 250Q159 245 160 240L165 173Q170 159 171 139L173 133L177 107L179 101Q183 88 184 75L197 33Q224-9 254-21Q276-21 302-9Q307-5 314 0.50Q321 6 329 14Q408 127 417 297L431 297L431-22L419-22Q421 13 391 29Q331-42 249-41Q220-40 188-19L154 14L145 25Q51 167 45 359L43 428L42 436L-117 472L38 496L49 526L70 644L97 728Q103 737 106 750L114 764Q115 767 117.50 773Q120 779 125 789L152 832L160 842L162 846L186 872L222 897M192 475Q180 514 137 521Q78 506 93 447Q120 403 171 426Q191 446 192 475Z"  horiz-adv-x="460" vert-adv-y="1000"  />

      
      <glyph glyph-name="uni44" unicode="&#x44;" d="M15 875L15 903L266 903L315 892Q463 807 489 593L485 595Q418 833 259 874L171 874L171 557Q209 532 226 480Q231 412 171 369L171 17L173 1Q258-15 325 44L347 79Q393 217 390 438L501 438Q504 267 446 126L429 89L423 77L413 62Q408 55 404 49Q400 43 397 38Q382 19 354 1L347-5Q277-32 187-24L15-24L15 1L62 1L67 3L67 371Q32 397 17 443Q9 511 67 555L67 875L15 875M173 479Q155 516 110 514Q73 498 69 453Q91 394 151 416Q183 439 173 479Z"  horiz-adv-x="518" vert-adv-y="1000"  />

      
      <glyph glyph-name="uni45" unicode="&#x45;" d="M10 875L10 903L402 903L404 892L404 716L406 702L406 640L391 640Q396 736 348 831Q337 846 318 860L314 864Q272 882 174 878L170 876L170 817L64 817L64 875L10 875M166 812L169 813L170 767L170 511L172 499L250 499L264 505Q292 559 291 667L307 667L307 245Q299 243 293 249Q297 359 240 433L170 433L170 3Q179 1 190 0.50Q201 0 215 1L285 1Q288 4 299 5L305 5L338 22Q424 111 408 272L420 274L420-26L154-26L104-195L64 38L64 433L-143 474L64 499L64 710L166 812Z"  horiz-adv-x="445" vert-adv-y="1000"  />

      
      <glyph glyph-name="uni46" unicode="&#x46;" d="M10 875L64 875L64 817L170 817L170 876L174 878Q271 882 314 864L318 860Q337 847 348 831Q396 737 391 640L406 640L406 702L404 716L404 892L402 903L10 903L10 875M166 812L64 710L64 499L-293 471L64 433L64 38L111-155L117-146L170 38L170 433L240 433Q298 359 293 249Q299 243 307 245L307 667L291 667Q292 559 264 505L250 499L172 499L170 511L170 767L169 813L166 812Z"  horiz-adv-x="421" vert-adv-y="1000"  />

      
      <glyph glyph-name="uni47" unicode="&#x47;" d="M216 899L228 903Q312 913 374 839Q380 834 394 829Q413 848 411 882Q419 884 427 884L427 571L413 571Q415 738 310 860Q304 864 297 867.50Q290 871 282 874Q182 888 163 726Q159 717 159 700L157 694L155 673L155 661L153 655L153 638L151 630L151 599L149 595L147 495Q146 490 146 484Q146 478 146 470L146 251L147 245L147 210Q149 208 149 202L149 192Q211 176 231 106Q237 46 188 3L198-11Q243-54 319-52Q226-90 151-13Q83-27 36 36Q1 106 60 171Q59 184 52 202L52 208Q45 228 44 251L42 265L40 278L38 284L36 317L34 339Q33 347 32.50 354.50Q32 362 32 368Q34 448 37.50 504Q41 560 46 593L48 608L56 647L60 657L62 671L71 702L73 706L77 720L81 728L83 735L103 778Q111 789 118 806L122 810L136 831L142 839L157 856L161 862Q180 881 212 897L216 899M319 231L317 239L470 239L420 108L450 107L399-13L396-17L345 104L376 104L319 231M178 99Q162 142 113 142Q61 120 76 65Q104 21 154 44Q178 63 178 99Z"  horiz-adv-x="488" vert-adv-y="1000"  />

      
      <glyph glyph-name="uni48" unicode="&#x48;" d="M20 878L25 875L70 876L70 3L64 1L20 1L20-24L232-24L232-9Q232-1 233 3L178 3L178 409Q273 298 365 411L365 3L359 1L313 1L313-24L523-24L523 1L518 1Q504 0 492.50-0.50Q481-1 473 0L473 876L479 878L523 878L523 903L313 903L313 888L313 875L365 876L365 509Q273 628 178 515L178 876L184 878L230 878Q234 888 232 903L20 903L20 878M314 493Q339 439 295 411Q236 396 219 452Q223 499 264 513Q296 511 314 493M671 476L482 439L482 507L671 476M-130 468L58 432L58 499L-130 468Z"  horiz-adv-x="548" vert-adv-y="1000"  />

      
      <glyph glyph-name="uni49" unicode="&#x49;" d="M72 877L72 903L285 903L285 877L230 876L230 274Q267 251 283 208Q312 220 335 279L336 67Q312 128 279 146L275 132Q260 106 230 87L230 3L285 2L285-24L72-24L72 1L119 1L125 3L125 89Q98 110 80 146Q49 137 20 63L20 280Q48 207 78 202Q89 242 125 271L125 876L72 877M227 210Q207 231 174 231Q133 217 129 171Q146 113 205 130Q252 159 227 210Z"  horiz-adv-x="352" vert-adv-y="1000"  />

      
      <glyph glyph-name="uni4a" unicode="&#x4a;" d="M173 876L173 902L392 902L392 877L336 876L338 20L238 195L238 875L173 876M15-29Q-6 89 115 111Q196 106 218 25Q231-61 158-92Q217-167 294-78Q278-150 195-148Q152-144 125-100Q52-101 15-29M160 37Q140 56 109 57Q69 44 64-4Q82-61 140-45Q187-16 160 37Z"  horiz-adv-x="410" vert-adv-y="1000"  />

      
      <glyph glyph-name="uni4b" unicode="&#x4b;" d="M17 876L17 904L228 904L228 876L173 877L173 486L242 613L220 635L210 646Q223 643 248 625L345 824Q351 840 351 861Q333 880 302 879L302 904L478 904L478 879Q394 862 337 755Q309 701 290.50 665.50Q272 630 263 613L289 596L306 578L312 574L339 545L341 541L349 533Q511 222 416-191L230-190Q441 270 255 598L175 447L176 1L228 2L228-25L17-25L17 2L62 2L68 4L68 877L17 876Z"  horiz-adv-x="457" vert-adv-y="1000"  />

      
      <glyph glyph-name="uni4c" unicode="&#x4c;" d="M71 876L71 902L288 902L288 877L233 877L229 875L229 811L125 811L125 875L71 876M125 707Q192 722 229 801L229 254Q265 231 282 189Q306 195 336 258L336 45L305 98L282 123Q265 87 229 64L230 0L329 0L350 4L364 8L397 27L413 43Q468 110 467 291L479 291L479-25L71-25L71 0L126 0L125 68Q96 88 81 125L53 96L47 88L20 43L20 258Q44 190 77 182Q91 222 125 250L125 707M229 186Q210 206 178 211Q135 199 129 150Q145 97 202 107Q249 133 229 186Z"  horiz-adv-x="503" vert-adv-y="1000"  />

      
      <glyph glyph-name="uni4d" unicode="&#x4d;" d="M22 873L77 873L75 104Q82-1 22-2L22-29L155-29L155-4Q119-5 102 25L100 39Q98 50 97 61Q96 72 96 82L96 115Q92 123 94 135L94 854L211 211L325 211L198 902L22 902L22 873M441 816L547 816L547 875L600 875L600 902L442 902L441 816M444 705L444 0L493-217L545-2L545 807Q543 804 444 705Z"  horiz-adv-x="618" vert-adv-y="1000"  />

      
      <glyph glyph-name="uni4e" unicode="&#x4e;" d="M17 868L17 902L156 902Q159 898 231 727.50Q303 557 443 219L443-47Q429-49 416-41L89 750L89 70L95 27Q112-5 148-6L148-31L17-31L17-4Q53-4 66 33L70 72L72 84L72 797L44 869L17 868M421 901L453 902L537 902L472 750L502 750L453 630L402 751L429 750L364 901L421 901Z"  horiz-adv-x="554" vert-adv-y="1000"  />

      
      <glyph glyph-name="uni4f" unicode="&#x4f;" d="M446 439L446 438Q444 541 428.50 623Q413 705 383 771Q321 903 233 903Q140 903 78 760Q18 614 18 437Q18 245 82 105Q143-33 232-33Q325-33 383 109Q443 252 446 426L446 439M337 439L337 438L337 361Q337 341 336.50 319.50Q336 298 335 276Q333 228 330 182Q327 136 321 100Q312 49 288.50 20Q265-9 232-9Q204-9 181.50 17Q159 43 149 88Q139 137 133.50 224Q128 311 128 426L128 469L128 492Q128 498 128 504Q128 510 129 515Q130 564 131 610Q132 656 134 689Q144 879 232 879Q286 879 307 816Q317 786 324 746.50Q331 707 333 658Q333 637 334 607.50Q335 578 335 546Q336 516 336.50 488Q337 460 337 439M242 598L129 454L339 454L242 598M230-132L266-42L199-42L230-132M-68 472L28 436L28 504L-68 472M441 441L530 477L441 509L441 441Z"  horiz-adv-x="478" vert-adv-y="1000"  />

      
      <glyph glyph-name="uni50" unicode="&#x50;" d="M265 901L272 903Q494 928 505 674L394 674Q393 722 387.50 755.50Q382 789 372 811Q353 854 308 877Q271 883 233 870L233 417Q406 374 489 545L491 540Q438 348 233 385L233-8L298-7L298-37L226-37L180-190L136-37L77-37L77-7L128-8L127 870L77 868L77 897L206 897L210 899Q219 899 226.50 899.50Q234 900 239 901L265 901Z"  horiz-adv-x="520" vert-adv-y="1000"  />

      
      <glyph glyph-name="uni51" unicode="&#x51;" d="M288 40Q371 76 420 200Q443 261 455.50 328Q468 395 468 470Q468 647 402 775Q337 903 243 903Q143 903 79 770Q15 636 15 468Q15 368 37 279.50Q59 191 104 125Q109 117 114 110.50Q119 104 124 97Q133 85 142.50 75.50Q152 66 164 59Q170 54 178.50 49.50Q187 45 194 40L195-71Q195-140 227.50-175.50Q260-211 318-211Q363-211 400-183Q407-182 410-175L405-152Q390-165 377.50-171.50Q365-178 354-180L345-180Q288-180 288-69L288 40M353 471L353 470L353 397Q353 378 352.50 358Q352 338 351 318Q349 272 345.50 230Q342 188 336 154Q326 106 301 79.50Q276 53 242 53Q212 53 188.50 78Q165 103 154 143Q143 188 137.50 268.50Q132 349 132 458L132 498L132 519Q132 524 132 529Q132 534 133 539Q134 585 135 629Q136 673 138 702Q149 878 242 878Q298 878 321 821Q332 793 339.50 757Q347 721 349 673Q349 654 350 627Q351 600 351 569Q352 541 352.50 515Q353 489 353 471M251 370L131 505L355 505L251 370Z"  horiz-adv-x="478" vert-adv-y="1000"  />

      
      <glyph glyph-name="uni52" unicode="&#x52;" d="M336 279L336 274L340 263L340 255Q340 249 341 246L343 232L345 221L355-39Q356-49 357-58Q358-67 358-74L360-86L361-98L363-107L365-119L376-161Q395-213 445-213Q499-210 522-165Q522-151 519-140Q497-171 476-146L469-128L467-114L465-111L464-99L462-81L450 192L449 197L445 217L442 228Q440 238 437 245.50Q434 253 432 258Q373 326 294 343Q329 314 336 279M197 901L171 901Q166 900 158.50 899.50Q151 899 142 899L138 897L-87 897L60 853L61-8L9-7L9-37L68-37L109-210L158-37L230-37L230-7L166-8L166 385Q370 347 423 540L421 545Q338 374 166 417L166 870Q203 883 240 877Q284 855 304 811Q324 769 326 674L437 674Q426 929 205 903L197 901Z"  horiz-adv-x="466" vert-adv-y="1000"  />

      
      <glyph glyph-name="uni53" unicode="&#x53;" d="M188 894Q264 895 317 812Q342 766 357 708.50Q372 651 379 581L393 581L393 884L380 884Q381 840 364 829Q293 903 200 899Q192 897 188 894M57 702Q63 607 121 522Q159 478 199 466Q239 454 262 448L287 433Q300 422 314 404.50Q328 387 342 364Q343 358 354 341Q395 228 375 91L354 36Q350 28 344.50 21Q339 14 332 8Q338 58 320 112Q301 161 256 204Q213 232 197 237L186 243L123 276L113 282L92 302Q84 312 74 329Q68 339 57 362Q5 524 57 702M77-63L211 67L77 204L77-63M98 448Q108 427 116 415Q123 400 133 388L155 368L165 362L227 329L239 323Q255 318 297 290Q320 267 336 244Q352 221 362 198Q378 144 374 95Q387 105 395 122L417 177Q436 309 395 427Q384 444 383 450Q354 496 329 519L303 534Q292 537 276.50 541.50Q261 546 241 551Q200 563 163 608Q104 694 98 788Q46 610 98 448Z"  horiz-adv-x="437" vert-adv-y="1000"  />

      
      <glyph glyph-name="uni54" unicode="&#x54;" d="M23 839L23 903L461 903L461 614L446 614Q426 852 293 874L293 448Q327 425 346 382L375 411L379 417Q388 429 395 454Q396 449 396 443Q396 438 396 431L396 241L371 286Q364 293 359 302L342 319Q325 285 293 263L292 39L238-181Q215-78 202.50-24Q190 30 188 36L188 263Q157 283 141 321Q130 313 119.50 299.50Q109 286 98 269L84 243Q84 240 80 239L80 454Q93 411 137 378Q150 423 188 446L188 872Q48 852 35 612L24 613L23 839M289 382Q270 402 238 407Q195 397 189 347Q207 292 264 304Q309 329 289 382Z"  horiz-adv-x="483" vert-adv-y="1000"  />

      
      <glyph glyph-name="uni55" unicode="&#x55;" d="M15 877L65 876L65 292L67 284L67 237L69 229L69 218Q71 206 72 196.50Q73 187 73 179L75 173L77 161L79 149Q81 129 87 116L91 97L110 48Q206-108 353-28Q386 0 399 36Q311-34 231 26L229 30Q167 111 175 218L175 877L228 878L228 903L15 903L15 877M362 880Q402 876 419 845Q419 837 423 829L425 817L425 802Q427 793 427.50 785.50Q428 778 427 771L428 589Q305 565 325 452Q359 373 437 378Q511 392 530 458Q537 563 444 588L444 803L445 817L447 839Q459 870 500 878L500 903L362 903L362 880M483 483Q479 452 458 435Q405 415 380 460Q366 526 431 534Q479 525 483 483M437 270L401 360L468 360L437 270Z"  horiz-adv-x="547" vert-adv-y="1000"  />

      
      <glyph glyph-name="uni56" unicode="&#x56;" d="M4 867L4 902L454 902L454 867Q413 874 397 834L235-49L223-49L69 762L67 770L161 863Q165 853 193 701Q221 549 274 254L276 268Q375 844 360 867L4 867Z"  horiz-adv-x="393" vert-adv-y="1000"  />

      
      <glyph glyph-name="uni57" unicode="&#x57;" d="M12 861L12 902L690 902L690 861Q656 869 649 821Q645 798 605.50 583.50Q566 369 491-37Q490-43 489.50-48Q489-53 489-57L467-57L459-8L458 6Q455 8 358 547L356 555L354 564Q354 557 329.50 419Q305 281 254 8L252-4L245-47L243-53Q236-57 223-57Q219-44 217-25L213-8Q212 9 75 758L75 764L170 855L174 824L280 238Q311 413 327 502Q343 591 344 596Q345 601 345.50 605Q346 609 346 611L317 770L409 859Q461 578 488 426.50Q515 275 518 252L522 238Q624 838 612 861L12 861Z"  horiz-adv-x="654" vert-adv-y="1000"  />

      
      <glyph glyph-name="uni58" unicode="&#x58;" d="M29 877L29 902L246 902Q248 889 244 877Q234 878 222 877.50Q210 877 195 875L279 605L346 814L350 846L350 857Q336 877 309 877L309 902L438 902L438 877Q412 871 391 848Q385 840 359 772.50Q333 705 287 576L451 23L457 4Q466 2 476.50 0.50Q487-1 498 0L498-27L283-27L283 0Q293-1 305.50-0.50Q318 0 332 2L104 787L191 875L29 877M96 172L104 191L197-27L10-27L96 172Z"  horiz-adv-x="518" vert-adv-y="1000"  />

      
      <glyph glyph-name="uni59" unicode="&#x59;" d="M10 868L10 903L453 903L453 868Q419 874 406 843L307 413L301 392L295 366L293 353L293 3L348 3L348-24L135-24L135 1L186 1L189 3L189 296Q187 302 173.50 363Q160 424 134 542Q82 774 80 780L168 870L10 868M359 868L178 868L271 438L271 433L283 386L289 415L289 421L371 802L371 815Q372 837 365 862L359 868Z"  horiz-adv-x="435" vert-adv-y="1000"  />

      
      <glyph glyph-name="uni5a" unicode="&#x5a;" d="M49 882L49 903L445 903L264 374L262 370Q279 353 286 329Q303 341 321 364Q331 377 336 401Q337 396 337.50 390.50Q338 385 338 378L338 188L307 241L284 267Q261 219 206 196Q204 188 189 139.50Q174 91 145 1L229 1Q237 0 247 0.50Q257 1 268 3L280 3L288 5Q296 7 305 10.50Q314 14 325 19Q348 35 370 62Q412 134 417 235Q420 250 418 271L420 284L420 292Q427 296 432 288L433-24L20-24L20 1L102 233Q94 243 84 263L83 269Q45 233 26 188L22 185L22 401Q38 358 79 325Q95 377 151 403L303 870Q305 872 303 878L192 878Q184 878 172.50 876Q161 874 147 866L141 864Q133 857 124 848.50Q115 840 106 829Q64 737 64 607L49 607L49 882M239 302Q232 346 182 354Q133 344 133 292Q144 251 188 247Q232 253 239 302Z"  horiz-adv-x="464" vert-adv-y="1000"  />

      
      <glyph glyph-name="uni61" unicode="&#x61;" d="M183 728L183 733L193 733L330-4L367-6L367-25L201-25L201-4L238-4L243-3L155 481Q150 481 108 238L108 227Q181 210 169 136Q160 64 78 61Q58-4 118-4L118-25L8-25L8-4Q57 0 64 64Q-2 91 7 167Q27 226 94 230L183 728M127 167Q115 189 88 186Q44 177 47 139Q59 99 94 105Q139 117 127 167Z"  horiz-adv-x="381" vert-adv-y="1000"  />

      
      <glyph glyph-name="uni62" unicode="&#x62;" d="M18 714L18 736L198 736L207 734Q216 734 226.50 731.50Q237 729 249 725Q306 696 333 629Q376 463 242 385Q362 350 360 199Q373 68 277-1Q225-28 155-22L134-22L99-164L68-22L18-22L18 0L59 0L63 1Q62 17 63 42L63 365L61 388Q65 399 63 425L63 712L18 714M234 679Q199 712 148 712L146 399L148 388Q194 387 237 420Q249 446 254.50 478Q260 510 258 547Q258 550 258 554Q258 558 256 562Q262 619 234 679M152 365L148 367L146 1Q196-2 242 33Q259 66 266 103.50Q273 141 269 183L269 227L267 230L266 249Q266 263 263 279Q260 295 252 315L246 326L234 343L227 350L223 353Q207 361 189.50 364Q172 367 152 365Z"  horiz-adv-x="378" vert-adv-y="1000"  />

      
      <glyph glyph-name="uni63" unicode="&#x63;" d="M164 730L136 710L116 689L114 685L107 678L85 642Q79 625 76 621L70 610Q68 600 63 593L41 525L24 428L15 404L337 380L18 355L19 349L20 293Q26 135 102 20L109 11L137-15Q162-33 186-33Q254-35 302 23Q327 9 325-18L335-18L335 242L324 242Q319 173 301.50 116Q284 59 251 11Q244 5 239 0.50Q234-4 229-8Q208-18 191-18Q167-7 145 26L134 61Q132 67 131.50 72.50Q131 78 129 82L128 87L125 108L124 113Q123 129 118 141L114 196Q114 200 113.50 204Q113 208 113 211L113 231L111 237L111 299Q190 322 179 396Q167 444 114 482Q114 575 132 628Q152 681 169 700Q186 716 204 717Q213 715 221 712.50Q229 710 236 705Q289 673 305 581Q313 523 317 484Q321 445 321 425L321 378L333 378L333 395L333 716L324 715Q324 684 301 684L277 701Q239 729 227 734L216 736L182 736Q177 734 173 733Q169 732 164 730Z"  horiz-adv-x="369" vert-adv-y="1000"  />

      
      <glyph glyph-name="uni64" unicode="&#x64;" d="M12 8L55 8L55 15Q8 53 14 106Q24 142 55 165L55 718L51 719L12 719L12 740L152 740Q188 742 221 738.50Q254 735 283 724L288 719Q313 703 323 689Q326 685 329 680Q332 675 337 669L344 657L349 647L363 618Q387 558 398 495.50Q409 433 408 364L318 364Q319 454 310.50 526.50Q302 599 283 656L264 684Q212 733 141 719L140 706L140 167Q187 132 184 76Q177 56 166.50 40Q156 24 140 14L140 8L211 8Q341 42 395 236L398 237Q377 63 256-6L217-15L12-15L12 8M141 78Q149 110 123 128Q74 146 56 98Q59 62 89 49Q126 48 141 78Z"  horiz-adv-x="421" vert-adv-y="1000"  />

      
      <glyph glyph-name="uni65" unicode="&#x65;" d="M8 712L52 712L52 665L139 665L139 713L142 715Q222 718 255 703L258 700Q266 694 272.50 688Q279 682 284 676Q322 595 318 521L330 521L330 571L329 583L329 726L327 735L8 735L8 712M90 612L52 647L52 406L-215 386L52 352L52 31L28-20L125-21L342-21L342 223L332 221Q345 91 275 18L249 4L243 4Q238 3 235.50 2Q233 1 232 1L175 1Q170 0 165 0Q160 0 155 0Q150 0 146.50 0.50Q143 1 139 2L139 352L196 352Q242 294 239 202Q242 199 250 199L250 543L237 543Q238 458 215 411L204 406L140 406L139 416L139 569L90 612Z"  horiz-adv-x="362" vert-adv-y="1000"  />

      
      <glyph glyph-name="uni66" unicode="&#x66;" d="M11 712L55 712L55 665L141 665L141 713L144 715Q226 718 258 703L262 700Q277 688 286 676Q324 597 321 521L333 521L333 571L331 583L331 726L330 735L11 735L11 712M137 661L55 577L55 406L-223 390L55 352L55 31L92-127L98-119L141 31L141 352L198 352Q244 294 241 202Q243 200 246.50 199.50Q250 199 252 199L252 543L240 543Q240 454 218 411L206 406L142 406L141 416L141 625L140 662L137 661Z"  horiz-adv-x="343" vert-adv-y="1000"  />

      
      <glyph glyph-name="uni67" unicode="&#x67;" d="M176 732L186 735Q254 743 305 683Q307 681 311.50 679Q316 677 321 674Q336 690 334 718Q337 718 340 718.50Q343 719 348 719L348 465L337 465Q337 602 252 700Q247 703 242 706Q237 709 230 712Q148 721 133 591Q131 586 130.50 581.50Q130 577 130 570L128 565L127 548L127 538L124 533L124 519L123 513L123 487L121 484L120 403Q119 398 119 393Q119 389 119 383L119 205L120 199L120 170Q121 170 121 164L121 156Q171 143 188 86Q193 37 153 2L162-9Q180-27 205-35Q230-43 260-42Q185-73 123-11Q68-21 30 30Q1 86 48 140Q48 145 46 151Q44 157 42 164L42 169Q40 177 38 185.50Q36 194 36 205L34 216L33 227L31 231L30 258L28 276Q26 283 26 288Q26 294 26 299Q28 365 31 410.50Q34 456 37 483L40 495L45 527L48 535L51 547L58 571L59 574L63 586L66 593L67 598L84 634Q89 640 96 656L99 659L111 676L116 683L128 696L131 702Q148 719 173 730L176 732M260 188L258 195L383 195L342 88L366 87L324-11L322-14L280 85L306 85L260 188M145 80Q132 116 92 116Q50 96 62 53Q73 36 89 31Q105 26 125 36Q145 50 145 80Z"  horiz-adv-x="397" vert-adv-y="1000"  />

      
      <glyph glyph-name="uni68" unicode="&#x68;" d="M16 715L16 735L189 735Q189 730 189 725Q189 720 187 715L150 715L145 713L145 419Q183 465 221.50 463.50Q260 462 297 415L297 713L255 712L255 723L255 735L426 735L426 715L389 715L385 713L385 0Q392-1 401-0.50Q410 0 421 1L426 1L426-20L255-20L255 1L293 1L297 2L297 334Q222 242 145 333L145 2L189 2L189-20L16-20L16 1L52 1L57 2L57 713L20 712L16 715M255 402Q239 417 215 418Q181 406 178 367Q192 323 240 334Q276 358 255 402Z"  horiz-adv-x="446" vert-adv-y="1000"  />

      
      <glyph glyph-name="uni69" unicode="&#x69;" d="M58 714L58 735L232 735L232 714L187 713L187 223Q216 205 230 169Q241 174 252.50 189Q264 204 273 227L274 55Q255 104 227 119L223 108Q212 86 187 70L187 2L232 1L232-20L58-20L58 1L97 1L101 2L101 73Q80 90 65 119Q41 112 16 52L16 228Q40 169 64 164Q72 197 101 221L101 713L58 714M185 170Q170 188 142 188Q110 176 105 140Q118 92 167 106Q206 129 185 170Z"  horiz-adv-x="286" vert-adv-y="1000"  />

      
      <glyph glyph-name="uni6a" unicode="&#x6a;" d="M141 713L141 734L319 734L319 714L274 713L275 16L194 158L194 712L141 713M12-23Q-5 72 94 90Q159 87 177 20Q189-49 129-75Q176-135 240-64Q225-121 158-121Q125-117 101-81Q43-84 12-23M130 30Q116 44 89 46Q57 37 52-3Q67-49 114-36Q153-14 130 30Z"  horiz-adv-x="333" vert-adv-y="1000"  />

      
      <glyph glyph-name="uni6b" unicode="&#x6b;" d="M14 713L55 714L55 3L51 1L14 1L14-21L186-21L186 1L143 1L142 364L208 487Q283 354 278 193Q273 34 158 109L339-155Q415 181 284 433L277 440L276 443L254 468L249 471L235 485L215 499Q221 513 236 541.50Q251 570 274 615Q320 702 389 715L389 736L245 736L245 715Q272 717 286 701Q286 684 280 671L202 508Q179 525 170 526L179 517L197 499L141 396L141 714L186 713L186 736L14 736L14 713Z"  horiz-adv-x="372" vert-adv-y="1000"  />

      
      <glyph glyph-name="uni6c" unicode="&#x6c;" d="M16 713L59 712L59 660L144 660L144 712L147 714L192 714L192 734L16 734L16 713M59 648L59 373L60 0L16 0L16-21L347-21L347 237L339 237Q339 91 295 35L281 22L254 7L243 3L225 0L145 0L146 455L59 648Z"  horiz-adv-x="409" vert-adv-y="1000"  />

      
      <glyph glyph-name="uni6d" unicode="&#x6d;" d="M18 711L18 734L162 734L264 172L172 172L77 695L77 110Q75 103 78 94L78 67Q78 51 81 32L82 20Q96-4 127-3L127-23L18-23L18-1Q67-1 61 85L63 711L18 711M359 664L360 734L488 734L488 712L446 712L446 664L359 664M362 574Q442 652 443 657L443-1L399-145L362 0L362 574Z"  horiz-adv-x="503" vert-adv-y="1000"  />

      
      <glyph glyph-name="uni6e" unicode="&#x6e;" d="M14 706L14 734L127 734Q129 731 187.50 592.50Q246 454 361 178L361-39Q350-40 339-33L73 610L73 57L77 22Q90-4 121-4L121-25L14-25L14-3Q42-3 54 26L57 58L58 68L58 649L36 707L14 706M343 734L369 734L437 734L384 610L408 610L369 513L327 612L349 610L296 734L343 734Z"  horiz-adv-x="451" vert-adv-y="1000"  />

      
      <glyph glyph-name="uni6f" unicode="&#x6f;" d="M361 358L361 356Q358 521 309 628Q259 735 187 735Q112 735 61 618Q12 501 12 355Q12 200 64 86Q115-26 186-26Q263-26 309 89Q358 202 361 346L361 358M272 358L272 356L272 294Q272 277 271.50 260Q271 243 271 224Q268 186 265.50 148.50Q263 111 258 81Q251 39 232 15.50Q213-8 186-8Q163-8 145 13.50Q127 35 119 71Q111 111 106 181.50Q101 252 101 346L101 382L101 400Q101 405 101 409Q101 414 102 419Q103 459 104 496.50Q105 534 107 561Q114 715 186 715Q231 715 248 664Q256 639 261 607Q266 575 268 536Q268 519 269.50 495Q271 471 271 444Q271 419 271.50 397Q272 375 272 358M195 487L102 370L274 370L195 487Z"  horiz-adv-x="371" vert-adv-y="1000"  />

      
      <glyph glyph-name="uni70" unicode="&#x70;" d="M216 734L221 735Q403 756 411 549L321 549Q320 587 315 615Q310 643 302 660Q295 678 281.50 691.50Q268 705 251 714Q222 718 189 708L189 340Q330 304 398 443L399 440Q357 283 189 313L189-7L243-6L243-30L184-30L146-155L111-30L63-30L63-6L105-7L103 708L63 706L63 730L167 730L170 732Q178 732 184 732.50Q190 733 195 734L216 734Z"  horiz-adv-x="424" vert-adv-y="1000"  />

      
      <glyph glyph-name="uni71" unicode="&#x71;" d="M158 33L158-56Q158-146 112-146L105-146Q95-144 85.50-139Q76-134 64-123L59-143Q65-149 67-149Q99-172 134-172Q182-172 208-143Q234-114 234-58L235 33Q241 37 248 40Q255 43 260 48Q270 53 277.50 61Q285 69 293 79Q297 84 300 89Q303 94 308 101Q344 156 362.50 228Q381 300 381 381Q381 516 329 627Q277 735 196 735Q118 735 66 630Q12 528 12 383Q12 322 22 267.50Q32 213 52 163Q91 62 158 33M106 384Q106 398 106.50 419Q107 440 108 463Q108 488 108.50 510.50Q109 533 109 548Q111 586 117 616Q123 646 132 669Q150 715 196 715Q235 715 255.50 678.50Q276 642 280 571Q283 548 283.50 512Q284 476 285 439Q286 431 286 422Q286 414 286 406L286 373Q286 285 281.50 219Q277 153 267 117Q258 85 239.50 64Q221 43 196 43Q168 43 148 65Q128 87 120 125Q115 153 112.50 187Q110 221 108 258Q107 275 106.50 291Q106 307 106 323L106 383L106 384M202 476L286 366L105 366L202 476Z"  horiz-adv-x="389" vert-adv-y="1000"  />

      
      <glyph glyph-name="uni72" unicode="&#x72;" d="M274 227L274 223L277 215L277 200L279 189L280 180L289-32Q289-40 290-47.50Q291-55 291-61L293-70L294-80L296-87L297-97L306-131Q322-174 362-174Q406-171 425-134Q425-129 424.50-124Q424-119 422-114Q404-139 387-119L382-105L381-92L378-90L377-80L376-66L366 156L365 161L362 177L360 186Q358 193 356 199Q354 205 352 210Q328 237 300 255Q272 273 240 279Q254 268 262 254.50Q270 241 274 227M161 734L140 734Q135 733 129 732.50Q123 732 116 732L112 730L8 730L8 707L48 708L50-7L8-6L8-30L55-30L129-30L187-30L187-6L135-7L135 313Q302 283 344 440L343 443Q276 304 135 340L135 708Q167 719 196 714Q231 695 248 660Q264 623 265 549L355 549Q347 756 167 735L161 734Z"  horiz-adv-x="388" vert-adv-y="1000"  />

      
      <glyph glyph-name="uni73" unicode="&#x73;" d="M153 728Q155 729 157 730.50Q159 732 163 732Q239 735 296 674Q310 684 309 719L320 719L320 473L308 473Q303 530 290.50 577Q278 624 258 661Q216 728 153 728M46 571Q4 426 46 295Q51 287 54 279.50Q57 272 61 267Q65 260 68 255Q71 250 75 245L92 230L100 224L152 198L161 193Q167 191 179 184.50Q191 178 208 166Q245 131 261 91Q276 48 271 7Q276 12 280.50 17Q285 22 288 30L305 74Q322 185 288 277Q284 284 281.50 289Q279 294 278 296Q255 334 233 352L213 365Q204 367 191.50 371Q179 375 162 380Q131 389 99 425Q52 492 46 571M63-52L63 166L172 55L63-52M80 365Q38 495 80 641Q82 603 95.50 566.50Q109 530 133 495Q164 458 196 449Q213 444 225.50 440.50Q238 437 246 435L267 422Q289 405 311 366Q312 362 321 348Q355 253 340 144L321 99Q319 92 314.50 86.50Q310 81 305 77Q308 119 295 162Q287 182 273.50 200Q260 218 242 237Q205 260 195 263L185 267L134 295L127 299L108 316Q106 320 102 325Q98 330 95 338Q91 343 88 349.50Q85 356 80 365Z"  horiz-adv-x="355" vert-adv-y="1000"  />

      
      <glyph glyph-name="uni74" unicode="&#x74;" d="M19 683L20 499L29 498Q40 695 204 710L204 605L202 552Q166 580 156 614L156 439Q159 440 159 442L171 463Q187 491 205 506L204 457L204 30Q206 25 215.50-18.50Q225-62 245-147L289 32L290 457L290 506L308 489Q310 485 312.50 482.50Q315 480 317 477L337 440L337 595L337 605Q337 611 336 614Q334 605 331 597Q328 589 323 584L320 578L290 555L290 607L290 712Q447 694 463 499L475 499L475 735L19 735L19 683Z"  horiz-adv-x="494" vert-adv-y="1000"  />

      
      <glyph glyph-name="uni75" unicode="&#x75;" d="M439 714L398 713L398 238L396 231L396 193L395 186L395 177Q392 157 392 145L390 141L388 131L387 121Q386 106 381 95L377 79L362 40Q282-88 164-23Q138-1 127 30Q197-28 263 21L265 24Q314 87 309 177L309 714L265 715L265 735L439 735L439 714M156 716Q124 713 110 687Q110 684 107 674L106 665L106 652Q101 641 103 628L102 265Q202 244 187 152Q156 89 96 93Q35 103 20 158Q13 243 89 264L89 653L89 665L87 683Q76 709 44 715L44 735L156 735L156 716M58 178Q61 153 78 139Q121 123 142 159Q152 213 100 220Q61 212 58 178Z"  horiz-adv-x="446" vert-adv-y="1000"  />

      
      <glyph glyph-name="uni76" unicode="&#x76;" d="M3 706L293 706Q305 686 224 218L223 207Q178 449 156 572Q134 695 131 703L55 627L56 620L182-40L191-40L323 679Q337 712 370 706L370 734L3 734L3 706Z"  horiz-adv-x="320" vert-adv-y="1000"  />

      
      <glyph glyph-name="uni77" unicode="&#x77;" d="M10 701L10 734L562 734L562 701Q534 707 528 669Q526 649 493 474.50Q460 300 399-30Q399-35 398.50-39Q398-43 398-46L381-46L374-7L373 4Q370 6 291 446L289 452L288 459Q288 454 268.50 341.50Q249 229 207 7L205-3L199-39L198-43Q192-46 182-46Q177-36 177-21L174-7Q173 1 145 156Q117 311 61 617L61 621L139 696L142 671L228 194Q254 337 266.50 409Q279 481 280 485Q280 490 281 492.50Q282 495 282 497L258 627L333 700Q375 471 397 347.50Q419 224 421 205L425 194Q509 682 498 701L10 701Z"  horiz-adv-x="532" vert-adv-y="1000"  />

      
      <glyph glyph-name="uni78" unicode="&#x78;" d="M391 1L259 3L329 75L143 714Q155 715 165.50 715.50Q176 716 184 715L184 737L8 737L8 715Q26 716 42 712L47 696L181 246Q143 140 122 86Q101 32 96 24Q77 5 58 1L58-19L162-19L162 1Q141 1 129 18L129 26L132 53L187 222L256 3Q243 1 233 0.50Q223 0 215 1Q212-8 214-19L391-19L391 1M336 575L406 737L253 737L329 560L336 575Z"  horiz-adv-x="421" vert-adv-y="1000"  />

      
      <glyph glyph-name="uni79" unicode="&#x79;" d="M8 706L136 708L65 635Q66 633 76.50 585.50Q87 538 109 441Q151 249 154 241L154 2L152 1L110 1L110-20L284-20L284 2L239 2L239 287L240 298L245 319L250 337L330 686Q342 712 369 706L369 735L8 735L8 706M293 706L297 702Q300 691 301 681.50Q302 672 302 663L302 652L235 343L235 338L230 315L221 352L221 356L145 706L293 706Z"  horiz-adv-x="354" vert-adv-y="1000"  />

      
      <glyph glyph-name="uni7a" unicode="&#x7a;" d="M40 718L40 735L362 735L215 305L213 301Q227 288 233 267Q247 278 262 296Q269 307 274 327Q274 322 274.50 317.50Q275 313 275 308L275 153L250 196L231 218Q221 197 205.50 183Q190 169 167 159Q165 153 153 113.50Q141 74 118 1L186 1Q202-1 218 2L228 2L234 4Q241 6 248 8.50Q255 11 264 15Q283 26 301 51Q335 109 340 191Q341 204 340 221L342 231L342 238Q347 242 352 234L352-20L16-20L16 1L82 189Q80 194 76.50 200.50Q73 207 68 215L67 219Q38 190 21 153L18 151L18 327Q24 308 35.50 293Q47 278 64 264Q72 286 86 302Q100 318 123 328L246 708Q249 711 246 715L156 715Q149 715 140 713.50Q131 712 120 705L114 703Q108 698 101 691Q94 684 86 674Q52 598 52 494L40 494L40 718M195 245Q188 282 148 288Q108 281 108 238Q117 206 153 201Q188 207 195 245Z"  horiz-adv-x="377" vert-adv-y="1000"  />

      
      <glyph glyph-name="unibf" unicode="&#xbf;" d="M58 714L101 713L101 221Q71 196 64 164Q40 168 16 228L16 52Q41 112 65 119Q81 89 101 73L101 2L97 1L58 1L58-20L232-20L232 1L187 2L187 70Q213 87 223 108L227 119Q254 105 274 55L273 227Q264 204 252.50 189Q241 174 230 169Q217 204 187 223L187 713L232 714L232 735L58 735L58 714M185 170Q206 129 167 106Q118 93 105 140Q109 176 142 188Q170 188 185 170M101 762L143 816L53 816L101 762M203 762L245 816L155 816L203 762Z"  horiz-adv-x="286" vert-adv-y="1000"  />

      
      <glyph glyph-name="unic0" unicode="&#xc0;" d="M224 894L225 900L237 900L406-6L451-7L451-31L247-31L247-6L292-6L298-4L191 590Q185 590 133 292L132 279Q221 258 208 168Q196 78 96 74Q72-6 144-6L144-31L10-31L10-6Q71 0 78 79Q-1 113 8 205Q34 277 115 283L224 894M155 205Q142 232 108 229Q55 218 58 170Q71 123 115 128Q171 144 155 205Z"  horiz-adv-x="467" vert-adv-y="1000"  />

      
      <glyph glyph-name="unic1" unicode="&#xc1;" d="M266-33L240-33Q237-31 235-30.50Q233-30 231-29Q229-29 180-153L137-29L78-29L78 0L128-2L129 876L78 875L78 905L137 905L179 905L227 905L503 905L503 876L234 876L234 483Q439 520 492 328L490 323Q407 495 234 451L234-2Q271-15 309-9Q353 13 373 57Q383 79 388.50 112.50Q394 146 395 194L506 194Q495-61 273-35L266-33Z"  horiz-adv-x="520" vert-adv-y="1000"  />

      
      <glyph glyph-name="unic2" unicode="&#xc2;" d="M77 877L132 875L132 521Q133 507 132.50 496Q132 485 130 477L132 449L132 51Q131 21 132 2L128 0L77 0L77-27L139-27L177-219L220-27L245-27Q331-35 395-2Q513 83 497 244Q498 429 352 473Q516 566 464 773Q429 856 360 891Q344 896 331.50 898.50Q319 901 309 902L298 904L77 904L77 877M343 834Q376 762 370 691Q374 684 372 672Q376 582 345 516Q294 474 236 464L237 875Q302 873 343 834M254 459Q291 453 329 434L333 430L343 422L358 400L364 387Q382 340 382 305L384 283L386 279L386 225Q393 124 352 41Q298-3 235 2L237 461L254 459M412 242L206 242L309 139L412 242M-54 473L134 436L134 504L-54 473Z"  horiz-adv-x="539" vert-adv-y="1000"  />

      
      <glyph glyph-name="unic3" unicode="&#xc3;" d="M71 0L125 1L125 65L229 65L229 1L233-1L288-1L288-26L71-26L71 0M125 169L125 626Q90 655 77 694Q44 687 20 618L20 833L47 788L53 780L81 751Q96 788 125 808L126 876L71 876L71 901L479 901L479 585L467 585Q468 766 413 833L397 849L364 868L350 872L329 876L230 876L229 812Q265 789 282 753L305 778L336 831L336 618Q306 681 282 687Q265 645 229 622L229 75Q192 154 125 169M229 690Q249 743 202 769Q146 779 129 726Q135 677 178 665Q208 669 229 690Z"  horiz-adv-x="503" vert-adv-y="1000"  />

      
      <glyph glyph-name="unic4" unicode="&#xc4;" d="M454-5L98-5Q83 18 182 594L184 608Q237 313 265 161Q293 9 297-1L391 92L389 100L235 911L223 911L61 28Q44-13 4-5L4-40L454-40L454-5Z"  horiz-adv-x="393" vert-adv-y="1000"  />

      
      <glyph glyph-name="unic5" unicode="&#xc5;" d="M10 875L10 903L402 903L404 892L404 716L406 702L406 640L391 640Q396 736 348 831Q337 846 318 860L314 864Q272 882 174 878L170 876L170 817L64 817L64 875L10 875M166 812L169 813L170 767L170 511L172 499L250 499L264 505Q292 559 291 667L307 667L307 245Q299 243 293 249Q297 359 240 433L170 433L170 3Q179 1 190 0.50Q201 0 215 1L285 1Q288 4 299 5L305 5L338 22Q424 111 408 272L420 274L420-26L154-26L104-195L64 38L64 433L-143 474L64 499L64 710L166 812Z"  horiz-adv-x="445" vert-adv-y="1000"  />

      
      <glyph glyph-name="unic6" unicode="&#xc6;" d="M217 896L253 871L277 845L279 841L287 831L314 788Q319 778 321.50 772Q324 766 325 763L333 749Q336 736 342 727L369 643L390 525L401 495L484 472L397 435L396 427L394 358Q388 166 294 24L285 13L251-20Q220-40 190-42Q109-43 48 28Q18 12 20-23L8-23L8 296L22 296Q31 125 110 13Q118 5 125-0.50Q132-6 137-10Q162-22 185-22Q215-10 242 32L255 74Q256 81 257 87Q258 93 260 100L262 106L266 132L268 138Q270 159 274 172L279 239Q280 244 280.50 249Q281 254 281 258L281 283L283 290L283 366Q194 401 200 486Q221 553 279 569Q280 637 274 687Q268 737 257 771Q234 837 212 858Q188 879 169 880Q147 877 129 865Q65 826 45 713Q25 595 25 581L10 582Q12 594 10 602L10 879L22 877Q22 840 50 839L80 860Q102 877 117.50 887Q133 897 141 901L154 903L196 903Q201 901 206.50 899Q212 897 217 896M247 474Q249 444 268 425Q319 402 346 446Q361 505 302 520Q259 513 247 474M207 497L207 437L51 469L207 497M844 896L808 871L784 845L782 841L774 831L747 788Q742 778 739.50 772Q737 766 736 763L728 749Q725 736 719 727L692 643L671 525L660 495L563 472L664 435L665 427L667 358Q673 166 767 24L776 13L810-20Q841-40 871-42Q952-43 1013 28Q1043 12 1041-23L1053-23L1053 296L1039 296Q1030 125 951 13Q943 5 936-0.50Q929-6 924-10Q898-22 876-22Q846-10 819 32L806 74Q805 81 804 87Q803 93 801 100L799 106L795 132L793 138Q791 159 787 172L782 239Q781 244 780.50 249Q780 254 780 258L780 283L778 290L778 366Q867 401 861 486Q840 553 782 569Q781 637 787 687Q793 737 804 771Q826 837 849 858Q873 879 892 880Q914 877 932 865Q996 826 1016 713Q1036 595 1036 581L1051 582Q1049 594 1051 602L1051 879L1039 877Q1039 840 1011 839L981 860Q959 877 943.50 887Q928 897 920 901L907 903L865 903Q860 901 854.50 899Q849 897 844 896M820 474Q818 444 799 425Q748 402 721 446Q706 505 765 520Q808 513 820 474M854 497L854 437L1010 469L854 497M443 879L484 878L484 263Q455 233 448 193Q426 197 403 272L403 51Q425 127 450 136Q463 98 484 78L484-10L480-12L443-12L443-37L608-37L608-11L566-10L566 76Q590 97 601 122L604 136Q628 118 648 55L647 271Q629 211 607 199Q595 241 566 266L566 878L608 879L608 905L443 905L443 879M563 201Q583 148 546 119Q501 103 488 161Q491 209 522 222Q548 222 563 201Z"  horiz-adv-x="1058" vert-adv-y="1000"  />

      
      <glyph glyph-name="unic7" unicode="&#xc7;" d="M88 507L123 507Q159 507 184 516Q209 525 225 546Q241 567 248 601Q255 635 255 683Q255 877 174 877Q168 877 156.50 874.50Q145 872 132 865Q115 855 100.50 840.50Q86 826 86 804Q86 788 97 788Q117 788 131 764.50Q145 741 145 701Q145 662 131.50 636Q118 610 98 610Q75 610 60 640.50Q45 671 45 719Q45 761 54.50 792.50Q64 824 81 849Q118 900 175 900Q249 900 298 842Q348 781 348 701Q348 616 318 569Q288 522 222 499Q294 486 332.50 425Q371 364 371 253Q371 137 315 60Q258-13 170-13Q100-13 59.50 35Q19 83 19 174Q19 225 35 256.50Q51 288 77 288Q98 288 111.50 262Q125 236 125 191Q125 152 115.50 135Q106 118 94 110Q89 107 84.50 105.50Q80 104 76 100Q70 97 66 94Q62 91 62 83Q62 54 89 32Q114 11 152 11Q184 11 206.50 22.50Q229 34 243 60Q257 86 263 128Q269 170 269 230Q269 393 240 437Q210 482 126 482L88 482L88 507M483 503Q435 515 406 535Q377 555 359 591Q315 564 315 564Q313 564 303 548Q271 520 246 509Q221 498 221 501L241 495Q275 486 301 462Q320 441 320 441Q320 441 359 416Q376 450 406.50 471Q437 492 482 503L483 503M337 559Q361 559 375 544.50Q389 530 389 505Q389 479 375 465Q361 451 337 451Q312 451 298 465Q284 479 284 505Q284 530 298 544.50Q312 559 337 559Z"  horiz-adv-x="480" vert-adv-y="1000"  />

      
      <glyph glyph-name="unic8" unicode="&#xc8;" d="M537 868L510 869L482 797L482 84L484 72L488 33Q501-4 537-4L537-31L406-31L406-6Q443-4 459 27L465 70L465 750L138-41Q124-49 111-47L111 219Q251 557 323 727.50Q395 898 398 902L537 902L537 868M133 901L190 901L125 750L152 751L101 630L52 750L82 750L17 902L101 902L133 901Z"  horiz-adv-x="554" vert-adv-y="1000"  />

      
      <glyph glyph-name="unic9" unicode="&#xc9;" d="M537 868L510 869L482 797L482 84L484 72L488 33Q501-4 537-4L537-31L406-31L406-6Q443-4 459 27L465 70L465 750L138-41Q124-49 111-47L111 219Q251 557 323 727.50Q395 898 398 902L537 902L537 868M133 901L190 901L125 750L152 751L101 630L52 750L82 750L17 902L101 902L133 901M223 910Q223 911 223.50 911.50Q224 912 224 912Q228 919 233.50 924.50Q239 930 248 930Q255 930 262 927Q269 924 276 920Q283 917 290.50 914Q298 911 306 911Q321 911 341 922Q360 934 366 947Q366 947 366.50 947.50Q367 948 367 949L348 942L348 963L348 962Q344 955 338 949.50Q332 944 322 935Q313 925 279 940Q245 953 239 941L223 910Z"  horiz-adv-x="554" vert-adv-y="1000"  />

      
      <glyph glyph-name="unica" unicode="&#xca;" d="M17 876L17 904L228 904L228 876L173 877L173 486L242 613L220 635L210 646Q223 643 248 625L345 824Q351 840 351 861Q333 880 302 879L302 904L478 904L478 879Q394 862 337 755Q309 701 290.50 665.50Q272 630 263 613L289 596L306 578L312 574L339 545L341 541L349 533Q511 222 416-191L230-190Q441 270 255 598L175 447L176 1L228 2L228-25L17-25L17 2L62 2L68 4L68 877L17 876Z"  horiz-adv-x="457" vert-adv-y="1000"  />

      
      <glyph glyph-name="unicb" unicode="&#xcb;" d="M148-5L98-5Q83 18 182 594L184 608Q237 313 265 161Q293 9 297-1L391 92L389 100L235 911L223 911L61 28Q44-13 4-5L4-40L148-40L148-5Z"  horiz-adv-x="393" vert-adv-y="1000"  />

      
      <glyph glyph-name="unicc" unicode="&#xcc;" d="M22 873L77 873L75 104Q82-1 22-2L22-29L155-29L155-4Q119-5 102 25L100 39Q98 50 97 61Q96 72 96 82L96 115Q92 123 94 135L94 854L211 211L325 211L198 902L22 902L22 873M441 816L547 816L547 875L600 875L600 902L442 902L441 816M444 705L444 0L493-217L545-2L545 807Q543 804 444 705Z"  horiz-adv-x="618" vert-adv-y="1000"  />

      
      <glyph glyph-name="unicd" unicode="&#xcd;" d="M20 878L25 875L70 876L70 3L64 1L20 1L20-24L232-24L232-9Q232-1 233 3L178 3L178 409Q273 298 365 411L365 3L359 1L313 1L313-24L523-24L523 1L518 1Q504 0 492.50-0.50Q481-1 473 0L473 876L479 878L523 878L523 903L313 903L313 888L313 875L365 876L365 509Q273 628 178 515L178 876L184 878L230 878Q234 888 232 903L20 903L20 878M314 493Q339 439 295 411Q236 396 219 452Q223 499 264 513Q296 511 314 493M671 476L482 439L482 507L671 476M-130 468L58 432L58 499L-130 468Z"  horiz-adv-x="548" vert-adv-y="1000"  />

      
      <glyph glyph-name="unice" unicode="&#xce;" d="M446 439L446 438Q444 541 428.50 623Q413 705 383 771Q321 903 233 903Q140 903 78 760Q18 614 18 437Q18 245 82 105Q143-33 232-33Q325-33 383 109Q443 252 446 426L446 439M337 439L337 438L337 361Q337 341 336.50 319.50Q336 298 335 276Q333 228 330 182Q327 136 321 100Q312 49 288.50 20Q265-9 232-9Q204-9 181.50 17Q159 43 149 88Q139 137 133.50 224Q128 311 128 426L128 469L128 492Q128 498 128 504Q128 510 129 515Q130 564 131 610Q132 656 134 689Q144 879 232 879Q286 879 307 816Q317 786 324 746.50Q331 707 333 658Q333 637 334 607.50Q335 578 335 546Q336 516 336.50 488Q337 460 337 439M242 598L129 454L339 454L242 598M230-132L266-42L199-42L230-132M-68 472L28 436L28 504L-68 472M441 441L530 477L441 509L441 441Z"  horiz-adv-x="478" vert-adv-y="1000"  />

      
      <glyph glyph-name="unicf" unicode="&#xcf;" d="M407-2L407-25L545-25L545 0Q504 8 492 39L490 61L489 75L489 290Q582 316 575 420Q555 487 482 500Q404 504 370 426Q350 313 473 289L472 107Q473 100 472.50 92.50Q472 85 470 76L470 61L468 49Q464 42 464 33Q448 3 407-2M528 391Q523 349 476 340Q411 348 425 414Q450 459 503 439Q523 423 528 391M469 578L493 508L441 508L469 578M66 0L120 1L120 65L224 65L224 1L228-1L283-1L283-26L66-26L66 0M120 169L120 626Q85 655 72 694Q39 687 15 618L15 833L42 788L48 780L76 751Q91 788 120 808L121 876L66 876L66 901L474 901L474 585L462 585Q463 766 408 833L392 849L359 868L345 872L324 876L225 876L224 812Q260 789 277 753L300 778L331 831L331 618Q301 681 277 687Q260 645 224 622L224 75Q187 154 120 169M224 690Q244 743 197 769Q141 779 124 726Q130 677 173 665Q203 669 224 690Z"  horiz-adv-x="593" vert-adv-y="1000"  />

      
      <glyph glyph-name="unid1" unicode="&#xd1;" d="M222 897Q232 899 243 904L285 904L298 902Q306 898 321.50 888Q337 878 359 861L389 840Q417 841 417 878L429 880L429 603Q427 595 429 583L414 582Q414 599 394 714Q374 827 310 866Q292 878 270 881Q249 879 227 859Q204 838 182 772Q159 705 160 570Q218 554 239 487Q245 402 156 367L156 291L158 284L158 259Q158 255 158.50 250Q159 245 160 240L165 173Q170 159 171 139L173 133L177 107L179 101Q183 88 184 75L197 33Q224-9 254-21Q276-21 302-9Q307-5 314 0.50Q321 6 329 14Q408 127 417 297L431 297L431-22L419-22Q421 13 391 29Q331-42 249-41Q220-40 188-19L154 14L145 25Q51 167 45 359L43 428L42 436L-117 472L38 496L49 526L70 644L97 728Q103 737 106 750L114 764Q115 767 117.50 773Q120 779 125 789L152 832L160 842L162 846L186 872L222 897M192 475Q180 514 137 521Q78 506 93 447Q120 403 171 426Q191 446 192 475Z"  horiz-adv-x="460" vert-adv-y="1000"  />

      
      <glyph glyph-name="unid2" unicode="&#xd2;" d="M23 839L23 903L461 903L461 614L446 614Q426 852 293 874L293 448Q327 425 346 382L375 411L379 417Q388 429 395 454Q396 449 396 443Q396 438 396 431L396 241L371 286Q364 293 359 302L342 319Q325 285 293 263L292 39L238-181Q215-78 202.50-24Q190 30 188 36L188 263Q157 283 141 321Q130 313 119.50 299.50Q109 286 98 269L84 243Q84 240 80 239L80 454Q93 411 137 378Q150 423 188 446L188 872Q48 852 35 612L24 613L23 839M289 382Q270 402 238 407Q195 397 189 347Q207 292 264 304Q309 329 289 382Z"  horiz-adv-x="483" vert-adv-y="1000"  />

      
      <glyph glyph-name="unid3" unicode="&#xd3;" d="M531 877L531 903L318 903L318 878L371 877L371 218Q379 111 317 30L315 26Q235-34 147 36Q160 0 193-28Q340-108 436 48L455 97L459 116Q466 131 467 149L469 161L471 173L473 179Q473 187 474 196.50Q475 206 477 218L477 229L479 237L479 284L481 292L481 876L531 877M184 880L184 903L46 903L46 878Q87 870 99 839L101 817L102 803L102 588Q9 562 16 458Q36 391 109 378Q187 374 221 452Q241 565 118 589L119 771Q118 778 118.50 785.50Q119 793 121 802L121 817L123 829Q127 836 127 845Q143 875 184 880M63 483Q68 525 115 534Q180 526 166 460Q141 415 88 435Q68 451 63 483M343 472L253 441L253 508L343 472Z"  horiz-adv-x="547" vert-adv-y="1000"  />

      
      <glyph glyph-name="unid4" unicode="&#xd4;" d="M317 901L343 901Q348 900 355.50 899.50Q363 899 372 899L376 897L505 897L505 868L455 870L454-8L505-7L505-37L446-37L392-190L356-37L284-37L284-7L349-8L349 385Q144 348 91 540L93 545Q176 373 349 417L349 870Q312 883 274 877Q230 855 210 811Q200 789 194.50 755.50Q189 722 188 674L77 674Q88 929 310 903L317 901M467 901L441 901Q436 900 428.50 899.50Q421 899 412 899L408 897L279 897L279 868L329 870L330-8L279-7L279-37L338-37L392-190L428-37L500-37L500-7L435-8L435 385Q640 348 693 540L691 545Q608 373 435 417L435 870Q472 883 510 877Q554 855 574 811Q584 789 589.50 755.50Q595 722 596 674L707 674Q696 929 474 903L467 901M467 901L441 901Q436 900 428.50 899.50Q421 899 412 899L408 897L279 897L279 868L329 870L330-8L279-7L279-37L338-37L392-190L428-37L500-37L500-7L435-8L435 385Q640 348 693 540L691 545Q608 373 435 417L435 870Q472 883 510 877Q554 855 574 811Q584 789 589.50 755.50Q595 722 596 674L707 674Q696 929 474 903L467 901Z"  horiz-adv-x="749" vert-adv-y="1000"  />

      
      <glyph glyph-name="unid5" unicode="&#xd5;" d="M29 877L29 902L246 902Q248 889 244 877Q234 878 222 877.50Q210 877 195 875L279 605L346 814L350 846L350 857Q336 877 309 877L309 902L438 902L438 877Q412 871 391 848Q385 840 359 772.50Q333 705 287 576L451 23L457 4Q466 2 476.50 0.50Q487-1 498 0L498-27L283-27L283 0Q293-1 305.50-0.50Q318 0 332 2L104 787L191 875L29 877M96 172L104 191L197-27L10-27L96 172Z"  horiz-adv-x="518" vert-adv-y="1000"  />

      
      <glyph glyph-name="unid6" unicode="&#xd6;" d="M184 876L184 899L46 899L46 874Q87 866 99 835L101 813L102 799L102 584Q9 558 16 454Q36 387 109 374Q187 370 221 448Q241 561 118 585L119 767Q118 774 118.50 781.50Q119 789 121 798L121 813L123 825Q127 832 127 841Q143 871 184 876M63 483Q68 525 115 534Q180 526 166 460Q141 415 88 435Q68 451 63 483M122 296L98 366L150 366L122 296M525 874L471 873L471 809L367 809L367 873L363 875L308 875L308 900L525 900L525 874M471 705L471 248Q506 219 519 180Q552 187 576 256L576 41L549 86L543 94L515 123Q500 86 471 66L470-2L525-2L525-27L117-27L117 289L129 289Q128 108 183 41L199 25L232 6L246 2L267-2L366-2L367 62Q331 85 314 121L291 96L260 43L260 256Q290 193 314 187Q331 229 367 252L367 799Q404 720 471 705M367 184Q347 131 394 105Q450 95 467 148Q461 197 418 209Q388 205 367 184M526-199L527-2L647-2L526-199Z"  horiz-adv-x="593" vert-adv-y="1000"  />

      
      <glyph glyph-name="unid8" unicode="&#xd8;" d="M184 876L184 899L46 899L46 874Q87 866 99 835L101 813L102 799L102 584Q9 558 16 454Q36 387 109 374Q187 370 221 448Q241 561 118 585L119 767Q118 774 118.50 781.50Q119 789 121 798L121 813L123 825Q127 832 127 841Q143 871 184 876M63 483Q68 525 115 534Q180 526 166 460Q141 415 88 435Q68 451 63 483M122 296L98 366L150 366L122 296M525 874L471 873L471 705L360 705L360 875L363 875L308 875L308 900L525 900L525 874M471 705L471 248Q506 219 519 180Q552 187 576 256L576 41L549 86L543 94L515 123Q500 86 471 66L470-2L525-2L525-27L117-27L117 289L129 289Q128 108 183 41L199 25L232 6L246 2L267-2L366-2L367 62Q331 85 314 121L291 96L255 43L255 256Q289 193 314 187Q331 229 367 252L366 705L471 705M367 128Q347 181 394 207Q450 217 467 164Q461 115 418 103Q388 107 367 128M647 876L647 899L785 899L785 874Q744 866 732 835L730 813L729 799L729 584Q822 558 815 454Q795 387 722 374Q644 370 610 448Q590 561 713 585L712 767Q713 774 712.50 781.50Q712 789 710 798L710 813L708 825Q704 832 704 841Q688 871 647 876M768 483Q763 525 716 534Q651 526 665 460Q690 415 743 435Q763 451 768 483M709 296L733 366L681 366L709 296M360 705L360 248Q325 219 312 180Q279 187 255 256L255 41L282 86L288 94L316 123Q331 86 360 66L361-2L306-2L306-27L714-27L714 289L702 289Q703 108 648 41L632 25L599 6L585 2L564-2L465-2L464 62Q500 85 517 121L540 96L575 40L575 256Q540 193 517 187Q500 229 464 252L465 705L360 705M360 705L360 248Q325 219 312 180Q279 187 255 256L255 41L282 86L288 94L316 123Q331 86 360 66L361-2L306-2L306-27L714-27L714 289L702 289Q703 108 648 41L632 25L599 6L585 2L564-2L465-2L464 62Q500 85 517 121L540 96L575 40L576 256Q542 193 517 187Q500 229 464 252L465 705L360 705Z"  horiz-adv-x="593" vert-adv-y="1000"  />

      
      <glyph glyph-name="unid9" unicode="&#xd9;" d="M184 876L184 899L46 899L46 874Q87 866 99 835L101 813L102 799L102 584Q9 558 16 454Q36 387 109 374Q187 370 221 448Q241 561 118 585L119 767Q118 774 118.50 781.50Q119 789 121 798L121 813L123 825Q127 832 127 841Q143 871 184 876M63 483Q68 525 115 534Q180 526 166 460Q141 415 88 435Q68 451 63 483M122 296L98 366L150 366L122 296M525 874L471 873L471 705L360 705L360 875L363 875L308 875L308 900L525 900L525 874M471 705L471 248Q506 219 519 180Q552 187 576 256L576 41L549 86L543 94L515 123Q500 86 471 66L470-2L525-2L525-27L117-27L117 289L129 289Q128 108 183 41L199 25L232 6L246 2L267-2L366-2L367 62Q331 85 314 121L291 96L257 43L255 256Q289 193 314 187Q331 229 367 252L366 705L471 705M367 128Q347 181 394 207Q450 217 467 164Q461 115 418 103Q388 107 367 128M647 876L647 899L785 899L785 874Q744 866 732 835L730 813L729 799L729 584Q822 558 815 454Q795 387 722 374Q644 370 610 448Q590 561 713 585L712 767Q713 774 712.50 781.50Q712 789 710 798L710 813L708 825Q704 832 704 841Q688 871 647 876M768 483Q763 525 716 534Q651 526 665 460Q690 415 743 435Q763 451 768 483M709 296L733 366L681 366L709 296M360 705L360 248Q325 219 312 180Q279 187 255 256L255 41L282 86L288 94L316 123Q331 86 360 66L361-2L306-2L306-27L714-27L714 289L702 289Q703 108 648 41L632 25L599 6L585 2L564-2L465-2L464 62Q500 85 517 121L540 96L575 41L576 256Q542 193 517 187Q500 229 464 252L465 705L360 705M360 705L360 248Q325 219 312 180Q279 187 255 256L255 41L282 86L288 94L316 123Q331 86 360 66L361-2L306-2L306-27L714-27L714 289L702 289Q703 108 648 41L632 25L599 6L585 2L564-2L465-2L464 62Q500 85 517 121L540 96L575 42L576 256Q542 193 517 187Q500 229 464 252L465 705L360 705M713-196L714 1L834 1L713-196Z"  horiz-adv-x="857" vert-adv-y="1000"  />

      
      <glyph glyph-name="unida" unicode="&#xda;" d="M263-33L237-33Q230-29 227-29Q226-29 181-154L133-29L75-29L75 0L125-2L126 876L48 876L0 751L0 905L176 905L224 905L296 905L296 875L231 876L231 483Q436 520 489 328L487 323Q404 495 231 451L231-2Q268-15 306-9Q350 13 370 57Q380 79 385.50 112.50Q391 146 392 194L503 194Q492-61 270-35L263-33Z"  horiz-adv-x="443" vert-adv-y="1000"  />

      
      <glyph glyph-name="unidb" unicode="&#xdb;" d="M265-33L239-33Q235-31 232-30.50Q229-30 227-29Q222-29 183-153L133-29L77-29L77 0L127-2L128 876L77 875L77 905L136 905L186 905L226 905L298 905L298 875L233 876L233 483Q438 520 491 328L489 323Q406 495 233 451L233-2Q270-15 308-9Q352 13 372 57Q382 79 387.50 112.50Q393 146 394 194L505 194Q494-61 272-35L265-33M602 878L655 877L655 269Q618 240 608 200Q579 204 550 278L550 60Q578 135 610 144Q628 109 655 86L655 0L649-2L602-2L602-27L815-27L815-1L760 0L760 84Q789 103 805 130L809 144Q842 126 866 64L865 277Q842 218 813 206Q796 250 760 272L760 877L815 878L815 904L602 904L602 878M757 207Q782 156 735 127Q675 110 659 168Q663 214 704 228Q737 228 757 207Z"  horiz-adv-x="893" vert-adv-y="1000"  />

      
      <glyph glyph-name="unidc" unicode="&#xdc;" d="M265-33L239-33Q235-31 232-30.50Q229-30 227-29Q222-29 179-158L136-29L77-29L77 0L127-2L128 876L77 875L77 905L136 905L177 905L226 905L298 905L298 875L233 876L233 483Q438 520 491 328L489 323Q406 495 233 451L233-2Q270-15 308-9Q352 13 372 57Q382 79 387.50 112.50Q393 146 394 194L505 194Q494-61 272-35L265-33Z"  horiz-adv-x="520" vert-adv-y="1000"  />

      
      <glyph glyph-name="unidf" unicode="&#xdf;" d="M99 299Q107 324 141 343Q61 331 3 285Q1 281-2 276Q-5 271-7 264L-10 257L-14 243L-15 240L-27 52L-29 40L-30 32L-32 30L-34 20L-41 8Q-62-9-84 12Q-87 4-87-5Q-65-36-10-38Q39-38 59-2L70 26L72 35L74 41L75 49L77 57Q77 62 78 68Q79 74 80 81L90 259L92 267L94 277Q95 278 95 283L95 288L99 296L99 299M238 901L230 903Q8 929-2 674L109 674Q110 767 131 811Q150 854 195 877Q233 883 269 870L269 417Q97 374 14 545L12 540Q64 347 269 385L269-8L205-7L205-37L277-37L326-210L367-37L426-37L426-7L374-8L375 853L522 897L297 897L293 899Q284 899 276.50 899.50Q269 900 264 901L238 901Z"  horiz-adv-x="536" vert-adv-y="1000"  />

      
      <glyph glyph-name="unie0" unicode="&#xe0;" d="M183 728L183 733L193 733L330-4L367-6L367-25L201-25L201-4L238-4L243-3L155 481Q150 481 108 238L108 227Q181 210 169 136Q160 64 78 61Q58-4 118-4L118-25L8-25L8-4Q57 0 64 64Q-2 91 7 167Q27 226 94 230L183 728M127 167Q115 189 88 186Q44 177 47 139Q59 99 94 105Q139 117 127 167Z"  horiz-adv-x="381" vert-adv-y="1000"  />

      
      <glyph glyph-name="unie1" unicode="&#xe1;" d="M216-29L195-29Q190-28 184-27.50Q178-27 170-27L167-25L63-25L63-1L103-3L105 712L63 711L63 735L111 735L148 735L184 735L401 735L401 711L189 712L189 392Q357 422 399 265L398 262Q331 401 189 365L189-3Q222-14 251-9Q268 0 281.50 13.50Q295 27 302 45Q310 62 315 90Q320 118 321 156L411 156Q403-51 221-30L216-29Z"  horiz-adv-x="424" vert-adv-y="1000"  />

      
      <glyph glyph-name="unie2" unicode="&#xe2;" d="M18 714L18 736L198 736L207 734Q216 734 226.50 731.50Q237 729 249 725Q306 696 333 629Q376 463 242 385Q362 350 360 199Q373 68 277-1Q225-28 155-22L134-22L99-164L68-22L18-22L18 0L59 0L63 1Q62 17 63 42L63 365L61 388Q65 399 63 425L63 712L18 714M234 679Q199 712 148 712L146 399L148 388Q194 387 237 420Q249 446 254.50 478Q260 510 258 547Q258 550 258 554Q258 558 256 562Q262 619 234 679M152 365L148 367L146 1Q196-2 242 33Q259 66 266 103.50Q273 141 269 183L269 227L267 230L266 249Q266 263 263 279Q260 295 252 315L246 326L234 343L227 350L223 353Q207 361 189.50 364Q172 367 152 365Z"  horiz-adv-x="378" vert-adv-y="1000"  />

      
      <glyph glyph-name="unie3" unicode="&#xe3;" d="M16-1L16-22L192-22L192-2L147-2L144 0L144 52L59 52L59 0L16-1M59 64L146 257L145 712L225 712L243 709L254 705L281 690L295 677Q339 621 339 475L347 475L347 733L16 733L16 712L60 712L59 339L59 64Z"  horiz-adv-x="409" vert-adv-y="1000"  />

      
      <glyph glyph-name="unie4" unicode="&#xe4;" d="M370-12L370-40L3-40L3-12Q36-18 50 15L182 734L191 734L317 74L318 67L242-9Q239-1 217 122Q195 245 150 487L149 476Q68 8 80-12L370-12Z"  horiz-adv-x="320" vert-adv-y="1000"  />

      
      <glyph glyph-name="unie5" unicode="&#xe5;" d="M8 712L52 712L52 665L139 665L139 713L142 715Q222 718 255 703L258 700Q266 694 272.50 688Q279 682 284 676Q322 595 318 521L330 521L330 571L329 583L329 726L327 735L8 735L8 712M90 612L52 647L52 406L-215 386L52 352L52 31L28-20L125-21L342-21L342 223L332 221Q345 91 275 18L249 4L243 4Q238 3 235.50 2Q233 1 232 1L175 1Q170 0 165 0Q160 0 155 0Q150 0 146.50 0.50Q143 1 139 2L139 352L196 352Q242 294 239 202Q242 199 250 199L250 543L237 543Q238 458 215 411L204 406L140 406L139 416L139 569L90 612Z"  horiz-adv-x="362" vert-adv-y="1000"  />

      
      <glyph glyph-name="unie6" unicode="&#xe6;" d="M175 725L204 705L223 684L224 681L231 673L252 639Q256 631 258 626Q260 621 261 619L267 607Q269 602 271 598Q273 594 275 590L296 523L313 429L322 405L388 386L318 357L318 350L316 295Q312 142 236 29L229 20L202-6Q177-22 153-24Q88-26 40 32Q17 19 18-9L8-9L8 246L19 246Q27 109 89 20Q96 14 101.50 9.50Q107 5 111 2Q131-8 149-8Q173 2 195 35L205 69Q207 81 209 89L211 94L214 115L216 120Q216 138 220 147L224 200Q226 210 226 215L226 235L227 241L227 302Q156 330 161 398Q177 450 224 464Q225 571 207 625Q189 677 171 694Q153 710 136 712Q118 710 105 700Q53 669 38 579Q30 533 26 506.50Q22 480 22 473L10 474Q11 484 10 490L10 711L19 710Q19 681 42 679L65 696Q83 710 95.50 718Q108 726 114 729L125 730L158 730Q163 728 167 727Q171 726 175 725M199 388Q201 364 216 349Q255 330 278 366Q290 413 243 425Q208 419 199 388M167 406L167 358L42 384L167 406M675 725L646 705L627 684L626 681L619 673L598 639Q594 631 592 626Q590 621 589 619L583 607Q581 602 579 598Q577 594 575 590L554 523L537 429L528 405L451 386L532 357L532 350L534 295Q538 142 614 29L621 20L648-6Q673-22 697-24Q762-26 810 32Q833 19 832-9L842-9L842 246L831 246Q823 109 761 20Q754 14 748.50 9.50Q743 5 739 2Q719-8 701-8Q677 2 655 35L645 69Q643 81 641 89L639 94L636 115L634 120Q634 138 630 147L626 200Q624 210 624 215L624 235L623 241L623 302Q693 330 689 398Q672 450 626 464Q625 571 643 625Q661 677 679 694Q697 710 714 712Q732 710 745 700Q797 669 812 579Q820 533 824 506.50Q828 480 828 473L840 474Q839 484 840 490L840 711L831 710Q831 681 808 679L785 696Q767 710 754.50 718Q742 726 736 729L725 730L692 730Q687 728 683 727Q679 726 675 725M656 388Q654 364 639 349Q600 330 577 366Q565 413 612 425Q646 419 656 388M683 406L683 358L808 384L683 406M355 711L388 710L388 219Q367 198 359 164Q341 168 323 227L323 50Q341 110 361 118Q372 88 388 72L388 2L385 0L355 0L355-20L487-20L487 1L453 2L453 70Q472 85 481 107L484 118Q504 103 519 53L518 226Q505 179 486 168Q475 202 453 222L453 710L487 711L487 732L355 732L355 711M451 170Q468 128 437 105Q401 92 391 138Q393 177 418 187Q439 187 451 170Z"  horiz-adv-x="859" vert-adv-y="1000"  />

      
      <glyph glyph-name="unie7" unicode="&#xe7;" d="M76 415L105 415Q164 414 188.50 447Q213 480 213 560Q213 720 147 720Q142 720 132.50 718Q123 716 112 710Q98 702 86 690Q74 678 74 660Q74 647 83 647Q100 647 111.50 627.50Q123 608 123 575Q123 543 112 521.50Q101 500 84 500Q65 500 52.50 525Q40 550 40 590Q40 625 48 650.50Q56 676 70 697Q101 739 147 739Q208 739 249 691Q290 641 290 575Q290 505 265 466.50Q240 428 186 409Q246 398 277.50 347.50Q309 297 309 206Q309 111 263 47Q216-13 143-13Q86-13 52.50 26.50Q19 66 19 141Q19 183 32 209Q45 235 67 235Q84 235 95 213.50Q106 192 106 155Q106 123 98.50 109Q91 95 81 88Q77 86 73 84.50Q69 83 66 80Q61 78 57.50 75.50Q54 73 54 66Q54 44 77 24Q99 7 128 7Q182 7 203.50 47.50Q225 88 225 187Q225 320 201 358Q176 395 107 395L76 395L76 415M401 412Q361 422 337.50 438.50Q314 455 299 484Q265 462 263 462Q262 462 253 449Q226 426 205.50 417Q185 408 185 410L202 405Q232 397 251 378Q268 361 267 361Q267 363 299 340Q327 394 400 412L401 412M281 458Q301 458 312.50 446Q324 434 324 414Q324 369 281 369Q237 369 237 414Q237 434 248.50 446Q260 458 281 458Z"  horiz-adv-x="398" vert-adv-y="1000"  />

      
      <glyph glyph-name="unie8" unicode="&#xe8;" d="M437 706L415 707L393 649L393 68L394 58L397 26Q409-3 437-3L437-25L330-25L330-4Q360-4 374 22L378 57L378 610L112-33Q101-41 90-39L90 178Q205 454 263.50 592.50Q322 731 324 734L437 734L437 706M108 734L155 734L102 610L124 612L82 513L43 610L67 610L14 734L82 734L108 734Z"  horiz-adv-x="451" vert-adv-y="1000"  />

      
      <glyph glyph-name="unie9" unicode="&#xe9;" d="M437 706L415 707L393 649L393 68L394 58L397 26Q409-3 437-3L437-25L330-25L330-4Q360-4 374 22L378 57L378 610L112-33Q101-41 90-39L90 178Q205 454 263.50 592.50Q322 731 324 734L437 734L437 706M108 734L155 734L102 610L124 612L82 513L43 610L67 610L14 734L82 734L108 734M155 768Q155 769 155.50 769.50Q156 770 156 770Q160 777 165.50 782.50Q171 788 180 788Q187 788 194 785Q201 782 208 778Q215 775 222.50 772Q230 769 238 769Q253 769 273 780Q292 792 298 805Q298 805 298.50 805.50Q299 806 299 807L280 800L280 821L280 820Q276 813 270 807.50Q264 802 254 793Q245 783 211 798Q177 811 171 799L155 768Z"  horiz-adv-x="451" vert-adv-y="1000"  />

      
      <glyph glyph-name="uniea" unicode="&#xea;" d="M14 713L55 714L55 3L51 1L14 1L14-21L186-21L186 1L143 1L142 364L208 487Q283 354 278 193Q273 34 158 109L339-155Q415 181 284 433L277 440L276 443L254 468L249 471L235 485L215 499Q221 513 236 541.50Q251 570 274 615Q320 702 389 715L389 736L245 736L245 715Q272 717 286 701Q286 684 280 671L202 508Q179 525 170 526L179 517L197 499L141 396L141 714L186 713L186 736L14 736L14 713Z"  horiz-adv-x="372" vert-adv-y="1000"  />

      
      <glyph glyph-name="unieb" unicode="&#xeb;" d="M121-12L121-40L3-40L3-12Q36-18 50 15L182 734L191 734L317 74L318 67L242-9Q239-1 217 122Q195 245 150 487L149 476Q68 8 80-12L121-12Z"  horiz-adv-x="320" vert-adv-y="1000"  />

      
      <glyph glyph-name="uniec" unicode="&#xec;" d="M18 711L18 734L162 734L264 172L172 172L77 695L77 110Q75 103 78 94L78 67Q78 51 81 32L82 20Q96-4 127-3L127-23L18-23L18-1Q67-1 61 85L63 711L18 711M359 664L360 734L488 734L488 712L446 712L446 664L359 664M362 574Q442 652 443 657L443-1L399-145L362 0L362 574Z"  horiz-adv-x="503" vert-adv-y="1000"  />

      
      <glyph glyph-name="unied" unicode="&#xed;" d="M16 715L16 735L189 735Q189 730 189 725Q189 720 187 715L150 715L145 713L145 419Q183 465 221.50 463.50Q260 462 297 415L297 713L255 712L255 723L255 735L426 735L426 715L389 715L385 713L385 0Q392-1 401-0.50Q410 0 421 1L426 1L426-20L255-20L255 1L293 1L297 2L297 334Q222 242 145 333L145 2L189 2L189-20L16-20L16 1L52 1L57 2L57 713L20 712L16 715M255 402Q239 417 215 418Q181 406 178 367Q192 323 240 334Q276 358 255 402Z"  horiz-adv-x="446" vert-adv-y="1000"  />

      
      <glyph glyph-name="uniee" unicode="&#xee;" d="M361 358L361 356Q358 521 309 628Q259 735 187 735Q112 735 61 618Q12 501 12 355Q12 200 64 86Q115-26 186-26Q263-26 309 89Q358 202 361 346L361 358M272 358L272 356L272 294Q272 277 271.50 260Q271 243 271 224Q268 186 265.50 148.50Q263 111 258 81Q251 39 232 15.50Q213-8 186-8Q163-8 145 13.50Q127 35 119 71Q111 111 106 181.50Q101 252 101 346L101 382L101 400Q101 405 101 409Q101 414 102 419Q103 459 104 496.50Q105 534 107 561Q114 715 186 715Q231 715 248 664Q256 639 261 607Q266 575 268 536Q268 519 269.50 495Q271 471 271 444Q271 419 271.50 397Q272 375 272 358M195 487L102 370L274 370L195 487Z"  horiz-adv-x="371" vert-adv-y="1000"  />

      
      <glyph glyph-name="unief" unicode="&#xef;" d="M283-4L283-18L395-18L395-3Q362 2 352 20L350 33L350 42L350 325Q426 341 419 403Q404 443 343 450Q283 453 252 407Q237 340 337 325L336 60Q338 51 333 43L333 33L332 26Q329 18 329 17Q316-2 283-4M380 385Q377 358 338 352Q285 358 296 400Q317 428 360 416Q377 405 380 385M13-1L13-22L189-22L189-2L144-2L141 0L141 52L56 52L56 0L13-1M56 64L143 257L142 712L222 712L240 709L251 705L278 690L292 677Q336 621 336 475L344 475L344 733L13 733L13 712L57 712L56 339L56 64Z"  horiz-adv-x="446" vert-adv-y="1000"  />

      
      <glyph glyph-name="unif1" unicode="&#xf1;" d="M285 730Q290 732 294 733Q298 734 303 736L337 736L348 734Q361 729 398 701L422 684Q445 684 445 715L454 716L454 395L454 378L442 378L442 425Q442 445 438 484Q434 523 426 581Q409 674 357 705Q350 710 342 712.50Q334 715 325 717Q305 715 290 700Q282 690 272.50 672Q263 654 253 628Q235 575 235 482Q288 444 300 396Q311 321 232 299L232 237L234 231L234 211Q234 208 234.50 204Q235 200 235 196L239 141Q244 129 245 113L246 108L249 87L250 82Q252 78 252.50 72.50Q253 67 255 61L266 26Q289-8 312-18Q330-18 350-8Q355-4 360 0.50Q365 5 372 11Q405 59 422.50 116Q440 173 445 242L456 242L456-18L446-18Q448 10 423 23Q376-35 307-33Q283-33 258-15L230 11L223 20Q147 135 141 293L140 349L139 355L15 380L136 404L145 428L162 525L184 593Q186 597 188 601Q190 605 191 610L197 621Q200 625 206 642L228 678L235 685L237 689L257 710L285 730Z"  horiz-adv-x="369" vert-adv-y="1000"  />

      
      <glyph glyph-name="unif2" unicode="&#xf2;" d="M19 683L20 499L29 498Q40 695 204 710L204 605L202 552Q166 580 156 614L156 439Q159 440 159 442L171 463Q187 491 205 506L204 457L204 30Q206 25 215.50-18.50Q225-62 245-147L289 32L290 457L290 506L308 489Q310 485 312.50 482.50Q315 480 317 477L337 440L337 595L337 605Q337 611 336 614Q334 605 331 597Q328 589 323 584L320 578L290 555L290 607L290 712Q447 694 463 499L475 499L475 735L19 735L19 683Z"  horiz-adv-x="494" vert-adv-y="1000"  />

      
      <glyph glyph-name="unif3" unicode="&#xf3;" d="M433 714L433 735L259 735L259 715L303 714L303 177Q308 86 259 24L257 21Q191-28 121 30Q131 1 158-23Q276-88 356 40L371 79L375 95Q379 105 381 121L382 131L384 141L386 145Q386 157 389 177L389 186L390 193L390 231L392 238L392 713L433 714M150 721L150 735L38 735L38 721Q70 716 81 698L83 685L83 676L83 398Q7 383 14 322Q29 283 90 276Q150 273 181 318Q196 384 96 399L97 658Q95 668 100 676L100 685L101 691Q104 698 104 701Q118 719 150 721M52 338Q55 362 94 368Q147 363 136 325Q115 300 72 310Q55 321 52 338M279 345L202 319L202 376L279 345Z"  horiz-adv-x="446" vert-adv-y="1000"  />

      
      <glyph glyph-name="unif4" unicode="&#xf4;" d="M248 730L267 730Q270 729 275 729Q281 729 287 729L290 727L382 727L382 707L346 708L346 83L382 83L382 62L340 62L302-47L276 62L225 62L225 83L271 83L271 363Q125 336 87 473L88 476Q148 355 271 385L271 708Q243 717 217 713Q185 696 172 666Q165 650 161 626.50Q157 603 156 568L77 568Q84 749 243 731L248 730M355 730L336 730Q333 729 327 729Q322 729 316 729L313 727L221 727L221 707L257 708L257 83L221 83L221 62L263 62L302-47L327 62L378 62L378 83L332 83L332 363Q478 336 516 473L515 476Q455 355 332 385L332 708Q360 717 386 713Q418 696 431 666Q438 650 442 626.50Q446 603 447 568L526 568Q519 749 360 731L355 730M355 730L336 730Q333 729 327 729Q322 729 316 729L313 727L221 727L221 707L257 708L257 83L221 83L221 62L263 62L302-47L327 62L378 62L378 83L332 83L332 363Q478 336 516 473L515 476Q455 355 332 385L332 708Q360 717 386 713Q418 696 431 666Q438 650 442 626.50Q446 603 447 568L526 568Q519 749 360 731L355 730Z"  horiz-adv-x="603" vert-adv-y="1000"  />

      
      <glyph glyph-name="unif5" unicode="&#xf5;" d="M391 1L259 3L329 75L143 714Q155 715 165.50 715.50Q176 716 184 715L184 737L8 737L8 715Q26 716 42 712L47 696L181 246Q143 140 122 86Q101 32 96 24Q77 5 58 1L58-19L162-19L162 1Q141 1 129 18L129 26L132 53L187 222L256 3Q243 1 233 0.50Q223 0 215 1Q212-8 214-19L391-19L391 1M336 575L406 737L253 737L329 560L336 575Z"  horiz-adv-x="421" vert-adv-y="1000"  />

      
      <glyph glyph-name="unif6" unicode="&#xf6;" d="M150 714L150 728L38 728L38 713Q71 708 81 690L83 677L83 668L83 385Q6 368 14 307Q29 267 90 260Q150 257 181 303Q196 370 96 385L97 650Q95 659 100 667L100 677L101 684Q104 691 104 693Q117 712 150 714M53 325Q56 352 95 358Q147 352 137 310Q116 282 73 294Q56 305 53 325M420 711L420 732L244 732L244 712L289 712L292 710L292 658L377 658L377 710L420 711M377 646L290 453L291-2L211-2L193 1L182 5L155 20L141 33Q97 89 97 235L89 235L89-23L420-23L420-2L376-2L377 371L377 646M420-199L421-2L541-2L420-199Z"  horiz-adv-x="446" vert-adv-y="1000"  />

      
      <glyph glyph-name="unif7" unicode="&#xf7;" d="M154 716L154 735L41 735L41 715Q75 708 85 683L86 665L87 653L87 477Q11 458 17 371Q32 317 93 305Q156 301 185 366Q202 458 100 478L101 627Q99 641 103 652L103 665L104 674Q108 681 108 688Q121 713 154 716M55 391Q60 426 98 433Q150 426 140 372Q120 335 76 352Q59 365 55 391M285 382L211 357L211 412L285 382M267 714L310 713L310 218Q281 193 272 161Q246 166 224 225L224 47Q248 108 273 115Q289 84 310 69L310-2L305-4L267-4L267-24L441-24L441-3L396-2L396 67Q421 82 433 104L436 115Q464 100 483 51L482 224Q463 177 440 166Q427 200 396 220L396 713L441 714L441 735L267 735L267 714M394 168Q413 126 376 102Q326 88 313 136Q317 173 350 185Q377 185 394 168Z"  horiz-adv-x="602" vert-adv-y="1000"  />

      
      <glyph glyph-name="unif8" unicode="&#xf8;" d="M153 709L153 728L40 728L40 708Q74 701 83 676L85 658L86 647L86 471Q10 452 16 365Q31 310 92 300Q155 296 183 360Q199 453 99 472L100 621Q99 626 99.50 632Q100 638 101 646L101 658L103 668Q106 674 106 681Q119 706 153 709M54 389Q57 423 96 431Q148 424 138 370Q119 333 74 350Q57 364 54 389M102 236L83 294L125 294L102 236M431 708L387 707L387 570L296 570L296 709L299 709L254 709L254 729L431 729L431 708M387 570L387 197Q413 175 426 142Q452 148 472 204L472 28L450 65L445 72L422 95Q410 66 387 49L386-7L431-7L431-27L98-27L98 231L108 231Q107 84 152 28L165 15L192 0L203-3L220-7L301-7L302 46Q272 65 259 94L240 73L211 29L211 204Q239 153 259 148Q272 180 302 201L301 570L387 570M302 99Q286 142 324 164Q370 171 383 129Q379 90 343 79Q316 84 302 99M530 709L530 728L643 728L643 708Q609 701 599 676L598 658L597 647L597 471Q673 452 667 365Q652 310 591 300Q528 296 500 360Q484 453 584 472L583 621Q584 626 583.50 632Q583 638 581 646L581 658L580 668Q577 674 577 681Q564 706 530 709M629 389Q624 424 586 431Q533 423 545 370Q564 333 608 350Q624 363 629 389M581 236L600 294L558 294L581 236M296 570L296 197Q268 175 257 142Q231 148 211 204L211 28L233 65L237 72L260 95Q273 66 296 49L297-7L252-7L252-27L585-27L585 231L575 231Q576 84 531 28L518 15L491 0L480-3L462-7L382-7L381 46Q411 65 424 94L443 73L472 30L472 203Q444 153 424 148Q411 180 381 201L382 570L296 570M296 570L296 197Q268 175 257 142Q231 148 211 204L211 28L233 65L237 72L260 95Q273 66 296 49L297-7L252-7L252-27L585-27L585 231L575 231Q576 84 531 28L518 15L491 0L480-3L462-7L382-7L381 46Q411 65 424 94L443 73L471 31L471 204Q445 153 424 148Q411 180 381 201L382 570L296 570Z"  horiz-adv-x="698" vert-adv-y="1000"  />

      
      <glyph glyph-name="unif9" unicode="&#xf9;" d="M153 709L153 728L40 728L40 708Q74 701 83 676L85 658L86 647L86 471Q10 452 16 365Q31 310 92 300Q155 296 183 360Q199 453 99 472L100 621Q99 626 99.50 632Q100 638 101 646L101 658L103 668Q106 674 106 681Q119 706 153 709M54 389Q57 423 96 431Q148 424 138 370Q119 333 74 350Q57 364 54 389M102 236L83 294L125 294L102 236M431 708L387 707L387 570L296 570L296 709L299 709L254 709L254 729L431 729L431 708M387 570L387 197Q413 175 426 142Q452 148 472 204L472 28L450 65L445 72L422 95Q410 66 387 49L386-7L431-7L431-27L98-27L98 231L108 231Q107 84 152 28L165 15L192 0L203-3L220-7L301-7L302 46Q272 65 259 94L240 73L211 29L211 204Q239 153 259 148Q272 180 302 201L301 570L387 570M302 99Q286 142 324 164Q370 171 383 129Q379 90 343 79Q316 84 302 99M530 709L530 728L643 728L643 708Q609 701 599 676L598 658L597 647L597 471Q673 452 667 365Q652 310 591 300Q528 296 500 360Q484 453 584 472L583 621Q584 626 583.50 632Q583 638 581 646L581 658L580 668Q577 674 577 681Q564 706 530 709M629 389Q624 424 586 431Q533 423 545 370Q564 333 608 350Q624 363 629 389M581 236L600 294L558 294L581 236M296 570L296 197Q268 175 257 142Q231 148 211 204L211 28L233 65L237 72L260 95Q273 66 296 49L297-7L252-7L252-27L585-27L585 231L575 231Q576 84 531 28L518 15L491 0L480-3L462-7L382-7L381 46Q411 65 424 94L443 73L472 30L472 203Q444 153 424 148Q411 180 381 201L382 570L296 570M296 570L296 197Q268 175 257 142Q231 148 211 204L211 28L233 65L237 72L260 95Q273 66 296 49L297-7L252-7L252-27L585-27L585 231L575 231Q576 84 531 28L518 15L491 0L480-3L462-7L382-7L381 46Q411 65 424 94L443 73L471 31L471 204Q445 153 424 148Q411 180 381 201L382 570L296 570M585-197L586 0L706 0L585-197Z"  horiz-adv-x="698" vert-adv-y="1000"  />

      
      <glyph glyph-name="unifa" unicode="&#xfa;" d="M216-31L195-31Q190-30 184-29.50Q178-29 170-29L167-27L63-27L63-3L103-5L105 710L50 710L2 600L2 733L148 733L184 733L243 733L243 709L189 710L189 390Q357 420 399 263L398 260Q331 399 189 363L189-5Q222-16 251-11Q268-2 281.50 11.50Q295 25 302 43Q310 60 315 88Q320 116 321 154L411 154Q403-53 221-32L216-31Z"  horiz-adv-x="417" vert-adv-y="1000"  />

      
      <glyph glyph-name="unifb" unicode="&#xfb;" d="M216-31L195-31Q190-30 184-29.50Q178-29 170-29L167-27L63-27L63-3L103-5L105 710L63 709L63 733L111 733L148 733L184 733L243 733L243 709L189 710L189 390Q357 420 399 263L398 260Q331 399 189 363L189-5Q222-16 251-11Q268-2 281.50 11.50Q295 25 302 43Q310 60 315 88Q320 116 321 154L411 154Q403-53 221-32L216-31M490 711L533 710L533 211Q503 186 496 153Q472 159 448 218L448 40Q473 101 497 108Q512 77 533 61L533-11L529-12L490-12L490-33L664-33L664-12L619-11L619 58Q644 74 655 97L659 108Q686 94 706 43L705 217Q696 194 684.50 179Q673 164 662 159Q649 194 619 213L619 710L664 711L664 732L490 732L490 711M617 160Q638 118 599 95Q550 80 537 129Q541 166 574 178Q602 178 617 160Z"  horiz-adv-x="749" vert-adv-y="1000"  />

      
      <glyph glyph-name="unifc" unicode="&#xfc;" d="M216-31L195-31Q190-30 184-29.50Q178-29 170-29L167-27L63-27L63-3L103-5L105 710L63 709L63 733L111 733L148 733L184 733L243 733L243 709L189 710L189 390Q357 420 399 263L398 260Q331 399 189 363L189-5Q222-16 251-11Q268-2 281.50 11.50Q295 25 302 43Q310 60 315 88Q320 116 321 154L411 154Q403-53 221-32L216-31Z"  horiz-adv-x="424" vert-adv-y="1000"  />

      
      <glyph glyph-name="uniff" unicode="&#xff;" d="M159 244Q163 253 171 262.50Q179 272 193 279Q161 275 133 263Q105 251 81 232Q78 228 73 216L71 210L68 199L67 196L57 45L56 36L55 29L52 28L51 19L46 9Q30-4 11 13Q9 9 8.50 5.50Q8 2 8-1Q27-27 71-28Q110-28 127 1L136 24L137 31L139 36L140 42L142 49Q142 53 143 58Q144 63 144 68L153 212L154 218L156 225L156 236L159 241L159 244M272 734L266 735Q86 756 78 549L168 549Q169 586 173 613.50Q177 641 185 660Q201 694 237 714Q266 719 298 708L298 340Q157 304 90 443L89 440Q131 283 298 313L298-7L246-6L246-30L304-30L378-30L425-30L425-6L383-7L385 708L425 707L425 730L321 730L317 732Q310 732 304 732.50Q298 733 293 734L272 734Z"  horiz-adv-x="388" vert-adv-y="1000"  />

      
      <glyph glyph-name="uniba" unicode="&#xba;" d="M164 730Q169 732 173 733Q177 734 182 736L216 736L227 734Q240 729 277 701L301 684Q324 684 324 715L333 716L333 395L333 378L321 378L321 425Q321 445 317 484Q313 523 305 581Q288 674 236 705Q229 710 221 712.50Q213 715 204 717Q184 715 169 700Q161 690 151.50 672Q142 654 132 628Q114 575 114 482Q167 444 179 396Q190 321 111 299L111 237L113 231L113 211Q113 208 113.50 204Q114 200 114 196L118 141Q123 129 124 113L125 108L128 87L129 82Q131 78 131.50 72.50Q132 67 134 61L145 26Q168-8 191-18Q209-18 229-8Q234-4 239 0.50Q244 5 251 11Q284 59 301.50 116Q319 173 324 242L335 242L335-18L325-18Q327 10 302 23Q255-35 186-33Q162-33 137-15L109 11L102 20Q26 135 20 293L19 349L18 355L295 380L15 404L24 428L41 525L63 593Q65 597 67 601Q69 605 70 610L76 621Q79 625 85 642L107 678L114 685L116 689L136 710L164 730Z"  horiz-adv-x="369" vert-adv-y="1000"  />

      
      <glyph glyph-name="unib8" unicode="&#xb8;" d="M8 712L8 735L327 735L329 726L329 583L330 571L330 521L318 521Q322 593 284 676Q279 682 272.50 688Q266 694 258 700L255 703Q222 718 142 715L139 713L139 665L52 665L52 712L8 712M90 612L139 569L139 416L140 406L204 406L215 411Q238 459 237 543L250 543L250 199Q242 199 239 202Q242 294 196 352L139 352L139 2Q143 1 146.50 0.50Q150 0 155 0L165 0Q172 0 175 1L232 1Q233 1 235.50 2Q238 3 243 4L249 4L275 18Q345 91 332 221L342 223L342-21L125-21L28-20L52 31L52 352L-215 386L52 406L52 647L90 612M225 762L267 816L177 816L225 762M106 762L148 816L58 816L106 762Z"  horiz-adv-x="362" vert-adv-y="1000"  />

      
      <glyph glyph-name="unib4" unicode="&#xb4;" d="M17-1L17-22L193-22L193-2L148-2L145 0L145 52L60 52L60 0L17-1M60 64L147 257L147 733L215 733L243 733L257 733L282 733L293 733L311 733L325 733L348 733L17 733L37 733L60 733L60 339L60 64M106 712L147 712L147 733L223 733L243 733L254 734L281 743L295 753Q339 794 339 900L347 900L347 712L16 712L16 733L60 733L60 712L106 712Z"  horiz-adv-x="409" vert-adv-y="1000"  />

      
      <glyph glyph-name="uniaf" unicode="&#xaf;" d="M72 877L125 876L125 271Q88 242 78 202Q49 206 20 280L20 63Q49 137 80 146Q98 110 125 89L125 3L119 1L72 1L72-24L285-24L285 2L230 3L230 87Q260 106 275 132L279 146Q312 128 336 67L335 279Q312 220 283 208Q266 252 230 274L230 876L285 877L285 903L72 903L72 877M227 210Q252 159 205 130Q145 113 129 171Q133 217 174 231Q207 231 227 210M241 912L283 966L193 966L241 912M122 912L164 966L74 966L122 912Z"  horiz-adv-x="352" vert-adv-y="1000"  />

      
      <glyph glyph-name="uniaa" unicode="&#xaa;" d="M222 897L186 872L162 846L160 842L152 832L125 789Q120 779 117.50 773Q115 767 114 764L106 750Q103 737 97 728L70 644L49 526L38 496L-117 472L42 436L43 428L45 359Q51 167 145 25L154 14L188-19Q219-39 249-41Q330-42 391 29Q421 13 419-22L431-22L431 297L417 297Q408 126 329 14Q321 6 314 0.50Q307-5 302-9Q276-21 254-21Q224-9 197 33L184 75Q183 82 182 88Q181 94 179 101L177 107L173 133L171 139Q169 160 165 173L160 240Q159 245 158.50 250Q158 255 158 259L158 284L156 291L156 367Q245 402 239 487Q218 554 160 570Q159 638 165 688Q171 738 182 772Q204 838 227 859Q251 880 270 881Q292 878 310 866Q374 827 394 714Q414 596 414 582L429 583Q427 595 429 603L429 880L417 878Q417 841 389 840L359 861Q337 878 321.50 888Q306 898 298 902L285 904L243 904Q238 902 232.50 900Q227 898 222 897M192 475Q190 445 171 426Q120 403 93 447Q78 506 137 521Q180 514 192 475M232 498L232 438L388 470L232 498Z"  horiz-adv-x="460" vert-adv-y="1000"  />

      
      <glyph glyph-name="unia8" unicode="&#xa8;" d="M10 875L64 875L64 817L170 817L170 876L174 878Q271 882 314 864L318 860Q337 847 348 831Q396 737 391 640L406 640L406 702L404 716L404 892L402 903L10 903L10 875M166 812L64 710L64 499L-143 474L64 433L64 38L104-195L154-26L420-26L420 274L408 272Q424 112 338 22L305 5L299 5Q287 3 285 1L215 1Q201 0 190 0.50Q179 1 170 3L170 433L240 433Q298 359 293 249Q299 243 307 245L307 667L291 667Q292 559 264 505L250 499L172 499L170 511L170 767L169 813L166 812M258 910L300 964L210 964L258 910M158 910L200 964L110 964L158 910Z"  horiz-adv-x="445" vert-adv-y="1000"  />

      
      <glyph glyph-name="unia5" unicode="&#xa5;" d="M71 0L125 1L125 65L229 65L229 1L233-1L288-1L288-26L71-26L71 0M125 169L125 626Q90 655 77 694Q44 687 20 618L20 833L47 788L53 780L81 751Q96 788 125 808L126 876L71 876L71 901L479 901L478 876L444 876L408 876L392 876L368 876L350 876L329 876L230 876L229 812Q265 789 282 753L305 778L336 831L336 618Q306 681 282 687Q265 645 229 622L229 75Q192 154 125 169M229 690Q249 743 202 769Q146 779 129 726Q135 677 178 665Q208 669 229 690M182 876L231 876L231 894L329 894L351 897L364 900L398 913L415 925Q469 973 469 1100L479 1100L479 876L71 876L71 894L125 894L125 876L182 876Z"  horiz-adv-x="503" vert-adv-y="1000"  />

      
      <glyph glyph-name="uni0401" unicode="&#x0401;" d="M10 875L64 875L64 817L170 817L170 876L174 878Q271 882 314 864L318 860Q337 847 348 831Q396 737 391 640L406 640L406 702L404 716L404 892L402 903L10 903L10 875M166 812L64 710L64 499L-143 474L64 433L64 38L104-195L154-26L420-26L420 274L408 272Q424 112 338 22L305 5L299 5Q287 3 285 1L215 1Q201 0 190 0.50Q179 1 170 3L170 433L240 433Q298 359 293 249Q299 243 307 245L307 667L291 667Q292 559 264 505L250 499L172 499L170 511L170 767L169 813L166 812M258 910L300 964L210 964L258 910M158 910L200 964L110 964L158 910Z"  horiz-adv-x="445" vert-adv-y="1000"  />

      
      <glyph glyph-name="uni0404" unicode="&#x0404;" d="M222 897L186 872L162 846L160 842L152 832L125 789Q120 779 117.50 773Q115 767 114 764L106 750Q103 737 97 728L70 644L49 526L38 496L-117 472L42 436L43 428L45 359Q51 167 145 25L154 14L188-19Q219-39 249-41Q330-42 391 29Q421 13 419-22L431-22L431 297L417 297Q408 126 329 14Q321 6 314 0.50Q307-5 302-9Q276-21 254-21Q224-9 197 33L184 75Q183 82 182 88Q181 94 179 101L177 107L173 133L171 139Q169 160 165 173L160 240Q159 245 158.50 250Q158 255 158 259L158 284L156 291L156 367Q245 402 239 487Q218 554 160 570Q159 638 165 688Q171 738 182 772Q204 838 227 859Q251 880 270 881Q292 878 310 866Q374 827 394 714Q414 596 414 582L429 583Q427 595 429 603L429 880L417 878Q417 841 389 840L359 861Q337 878 321.50 888Q306 898 298 902L285 904L243 904Q238 902 232.50 900Q227 898 222 897M192 475Q190 445 171 426Q120 403 93 447Q78 506 137 521Q180 514 192 475M232 498L232 438L388 470L232 498Z"  horiz-adv-x="460" vert-adv-y="1000"  />

      
      <glyph glyph-name="uni0406" unicode="&#x0406;" d="M72 877L72 903L285 903L285 877L230 876L230 274Q267 251 283 208Q312 220 335 279L336 67Q312 128 279 146L275 132Q260 106 230 87L230 3L285 2L285-24L72-24L72 1L119 1L125 3L125 89Q98 110 80 146Q49 137 20 63L20 280Q48 207 78 202Q89 242 125 271L125 876L72 877M227 210Q207 231 174 231Q133 217 129 171Q146 113 205 130Q252 159 227 210Z"  horiz-adv-x="352" vert-adv-y="1000"  />

      
      <glyph glyph-name="uni0407" unicode="&#x0407;" d="M72 877L125 876L125 271Q88 242 78 202Q49 206 20 280L20 63Q49 137 80 146Q98 110 125 89L125 3L119 1L72 1L72-24L285-24L285 2L230 3L230 87Q260 106 275 132L279 146Q312 128 336 67L335 279Q312 220 283 208Q266 252 230 274L230 876L285 877L285 903L72 903L72 877M227 210Q252 159 205 130Q145 113 129 171Q133 217 174 231Q207 231 227 210M241 912L283 966L193 966L241 912M122 912L164 966L74 966L122 912Z"  horiz-adv-x="352" vert-adv-y="1000"  />

      
      <glyph glyph-name="uni0410" unicode="&#x0410;" d="M224 894L225 900L237 900L406-6L451-7L451-31L247-31L247-6L292-6L298-4L191 590Q185 590 133 292L132 279Q221 258 208 168Q196 78 96 74Q72-6 144-6L144-31L10-31L10-6Q71 0 78 79Q-1 113 8 205Q34 277 115 283L224 894M155 205Q142 232 108 229Q55 218 58 170Q71 123 115 128Q171 144 155 205Z"  horiz-adv-x="467" vert-adv-y="1000"  />

      
      <glyph glyph-name="uni0411" unicode="&#x0411;" d="M266-33L240-33Q237-31 235-30.50Q233-30 231-29Q229-29 180-153L137-29L78-29L78 0L128-2L129 876L78 875L78 905L137 905L179 905L227 905L503 905L503 876L234 876L234 483Q439 520 492 328L490 323Q407 495 234 451L234-2Q271-15 309-9Q353 13 373 57Q383 79 388.50 112.50Q394 146 395 194L506 194Q495-61 273-35L266-33Z"  horiz-adv-x="520" vert-adv-y="1000"  />

      
      <glyph glyph-name="uni0412" unicode="&#x0412;" d="M77 877L132 875L132 521Q133 507 132.50 496Q132 485 130 477L132 449L132 51Q131 21 132 2L128 0L77 0L77-27L139-27L177-219L220-27L245-27Q331-35 395-2Q513 83 497 244Q498 429 352 473Q516 566 464 773Q429 856 360 891Q344 896 331.50 898.50Q319 901 309 902L298 904L77 904L77 877M343 834Q376 762 370 691Q374 684 372 672Q376 582 345 516Q294 474 236 464L237 875Q302 873 343 834M254 459Q291 453 329 434L333 430L343 422L358 400L364 387Q382 340 382 305L384 283L386 279L386 225Q393 124 352 41Q298-3 235 2L237 461L254 459M412 242L206 242L309 139L412 242M-54 473L134 436L134 504L-54 473Z"  horiz-adv-x="539" vert-adv-y="1000"  />

      
      <glyph glyph-name="uni0413" unicode="&#x0413;" d="M71 0L125 1L125 65L229 65L229 1L233-1L288-1L288-26L71-26L71 0M125 169L125 626Q90 655 77 694Q44 687 20 618L20 833L47 788L53 780L81 751Q96 788 125 808L126 876L71 876L71 901L479 901L479 585L467 585Q468 766 413 833L397 849L364 868L350 872L329 876L230 876L229 812Q265 789 282 753L305 778L336 831L336 618Q306 681 282 687Q265 645 229 622L229 75Q192 154 125 169M229 690Q249 743 202 769Q146 779 129 726Q135 677 178 665Q208 669 229 690Z"  horiz-adv-x="503" vert-adv-y="1000"  />

      
      <glyph glyph-name="uni0414" unicode="&#x0414;" d="M454-5L98-5Q83 18 182 594L184 608Q237 313 265 161Q293 9 297-1L391 92L389 100L235 911L223 911L61 28Q44-13 4-5L4-40L454-40L454-5Z"  horiz-adv-x="393" vert-adv-y="1000"  />

      
      <glyph glyph-name="uni0415" unicode="&#x0415;" d="M10 875L10 903L402 903L404 892L404 716L406 702L406 640L391 640Q396 736 348 831Q337 846 318 860L314 864Q272 882 174 878L170 876L170 817L64 817L64 875L10 875M166 812L169 813L170 767L170 511L172 499L250 499L264 505Q292 559 291 667L307 667L307 245Q299 243 293 249Q297 359 240 433L170 433L170 3Q179 1 190 0.50Q201 0 215 1L285 1Q288 4 299 5L305 5L338 22Q424 111 408 272L420 274L420-26L154-26L104-195L64 38L64 433L-143 474L64 499L64 710L166 812Z"  horiz-adv-x="445" vert-adv-y="1000"  />

      
      <glyph glyph-name="uni0416" unicode="&#x0416;" d="M217 896L253 871L277 845L279 841L287 831L314 788Q319 778 321.50 772Q324 766 325 763L333 749Q336 736 342 727L369 643L390 525L401 495L484 472L397 435L396 427L394 358Q388 166 294 24L285 13L251-20Q220-40 190-42Q109-43 48 28Q18 12 20-23L8-23L8 296L22 296Q31 125 110 13Q118 5 125-0.50Q132-6 137-10Q162-22 185-22Q215-10 242 32L255 74Q256 81 257 87Q258 93 260 100L262 106L266 132L268 138Q270 159 274 172L279 239Q280 244 280.50 249Q281 254 281 258L281 283L283 290L283 366Q194 401 200 486Q221 553 279 569Q280 637 274 687Q268 737 257 771Q234 837 212 858Q188 879 169 880Q147 877 129 865Q65 826 45 713Q25 595 25 581L10 582Q12 594 10 602L10 879L22 877Q22 840 50 839L80 860Q102 877 117.50 887Q133 897 141 901L154 903L196 903Q201 901 206.50 899Q212 897 217 896M247 474Q249 444 268 425Q319 402 346 446Q361 505 302 520Q259 513 247 474M207 497L207 437L51 469L207 497M844 896L808 871L784 845L782 841L774 831L747 788Q742 778 739.50 772Q737 766 736 763L728 749Q725 736 719 727L692 643L671 525L660 495L563 472L664 435L665 427L667 358Q673 166 767 24L776 13L810-20Q841-40 871-42Q952-43 1013 28Q1043 12 1041-23L1053-23L1053 296L1039 296Q1030 125 951 13Q943 5 936-0.50Q929-6 924-10Q898-22 876-22Q846-10 819 32L806 74Q805 81 804 87Q803 93 801 100L799 106L795 132L793 138Q791 159 787 172L782 239Q781 244 780.50 249Q780 254 780 258L780 283L778 290L778 366Q867 401 861 486Q840 553 782 569Q781 637 787 687Q793 737 804 771Q826 837 849 858Q873 879 892 880Q914 877 932 865Q996 826 1016 713Q1036 595 1036 581L1051 582Q1049 594 1051 602L1051 879L1039 877Q1039 840 1011 839L981 860Q959 877 943.50 887Q928 897 920 901L907 903L865 903Q860 901 854.50 899Q849 897 844 896M820 474Q818 444 799 425Q748 402 721 446Q706 505 765 520Q808 513 820 474M854 497L854 437L1010 469L854 497M443 879L484 878L484 263Q455 233 448 193Q426 197 403 272L403 51Q425 127 450 136Q463 98 484 78L484-10L480-12L443-12L443-37L608-37L608-11L566-10L566 76Q590 97 601 122L604 136Q628 118 648 55L647 271Q629 211 607 199Q595 241 566 266L566 878L608 879L608 905L443 905L443 879M563 201Q583 148 546 119Q501 103 488 161Q491 209 522 222Q548 222 563 201Z"  horiz-adv-x="1058" vert-adv-y="1000"  />

      
      <glyph glyph-name="uni0417" unicode="&#x0417;" d="M88 507L123 507Q159 507 184 516Q209 525 225 546Q241 567 248 601Q255 635 255 683Q255 877 174 877Q168 877 156.50 874.50Q145 872 132 865Q115 855 100.50 840.50Q86 826 86 804Q86 788 97 788Q117 788 131 764.50Q145 741 145 701Q145 662 131.50 636Q118 610 98 610Q75 610 60 640.50Q45 671 45 719Q45 761 54.50 792.50Q64 824 81 849Q118 900 175 900Q249 900 298 842Q348 781 348 701Q348 616 318 569Q288 522 222 499Q294 486 332.50 425Q371 364 371 253Q371 137 315 60Q258-13 170-13Q100-13 59.50 35Q19 83 19 174Q19 225 35 256.50Q51 288 77 288Q98 288 111.50 262Q125 236 125 191Q125 152 115.50 135Q106 118 94 110Q89 107 84.50 105.50Q80 104 76 100Q70 97 66 94Q62 91 62 83Q62 54 89 32Q114 11 152 11Q184 11 206.50 22.50Q229 34 243 60Q257 86 263 128Q269 170 269 230Q269 393 240 437Q210 482 126 482L88 482L88 507M483 503Q435 515 406 535Q377 555 359 591Q315 564 315 564Q313 564 303 548Q271 520 246 509Q221 498 221 501L241 495Q275 486 301 462Q320 441 320 441Q320 441 359 416Q376 450 406.50 471Q437 492 482 503L483 503M337 559Q361 559 375 544.50Q389 530 389 505Q389 479 375 465Q361 451 337 451Q312 451 298 465Q284 479 284 505Q284 530 298 544.50Q312 559 337 559Z"  horiz-adv-x="480" vert-adv-y="1000"  />

      
      <glyph glyph-name="uni0418" unicode="&#x0418;" d="M537 868L510 869L482 797L482 84L484 72L488 33Q501-4 537-4L537-31L406-31L406-6Q443-4 459 27L465 70L465 750L138-41Q124-49 111-47L111 219Q251 557 323 727.50Q395 898 398 902L537 902L537 868M133 901L190 901L125 750L152 751L101 630L52 750L82 750L17 902L101 902L133 901Z"  horiz-adv-x="554" vert-adv-y="1000"  />

      
      <glyph glyph-name="uni0419" unicode="&#x0419;" d="M537 868L510 869L482 797L482 84L484 72L488 33Q501-4 537-4L537-31L406-31L406-6Q443-4 459 27L465 70L465 750L138-41Q124-49 111-47L111 219Q251 557 323 727.50Q395 898 398 902L537 902L537 868M133 901L190 901L125 750L152 751L101 630L52 750L82 750L17 902L101 902L133 901M223 910Q223 911 223.50 911.50Q224 912 224 912Q228 919 233.50 924.50Q239 930 248 930Q255 930 262 927Q269 924 276 920Q283 917 290.50 914Q298 911 306 911Q321 911 341 922Q360 934 366 947Q366 947 366.50 947.50Q367 948 367 949L348 942L348 963L348 962Q344 955 338 949.50Q332 944 322 935Q313 925 279 940Q245 953 239 941L223 910Z"  horiz-adv-x="554" vert-adv-y="1000"  />

      
      <glyph glyph-name="uni041A" unicode="&#x041A;" d="M17 876L17 904L228 904L228 876L173 877L173 486L242 613L220 635L210 646Q223 643 248 625L345 824Q351 840 351 861Q333 880 302 879L302 904L478 904L478 879Q394 862 337 755Q309 701 290.50 665.50Q272 630 263 613L289 596L306 578L312 574L339 545L341 541L349 533Q511 222 416-191L230-190Q441 270 255 598L175 447L176 1L228 2L228-25L17-25L17 2L62 2L68 4L68 877L17 876Z"  horiz-adv-x="457" vert-adv-y="1000"  />

      
      <glyph glyph-name="uni041B" unicode="&#x041B;" d="M148-5L98-5Q83 18 182 594L184 608Q237 313 265 161Q293 9 297-1L391 92L389 100L235 911L223 911L61 28Q44-13 4-5L4-40L148-40L148-5Z"  horiz-adv-x="393" vert-adv-y="1000"  />

      
      </font>
</defs>
</svg>
